<?xml version="1.0" encoding="UTF-8"?>
<svg width="294"  viewBox="0 0 294 78"  xmlns="http://www.w3.org/2000/svg">
<path d="M60.656 67.936C61.488 70.048 62.448 71.584 63.536 72.544C64.624 73.504 65.68 74.016 66.704 74.08V76C62.864 75.808 58 75.712 52.112 75.712C45.584 75.712 40.72 75.808 37.52 76V74.08C39.952 73.952 41.68 73.664 42.704 73.216C43.728 72.704 44.24 71.84 44.24 70.624C44.24 69.472 43.856 67.936 43.088 66.016L37.328 50.272H16.4L13.904 56.896C12.112 61.504 11.216 65.056 11.216 67.552C11.216 69.92 11.92 71.584 13.328 72.544C14.8 73.44 16.944 73.952 19.76 74.08V76C15.408 75.808 11.44 75.712 7.856 75.712C4.912 75.712 2.48 75.808 0.56 76V74.08C3.696 73.504 6.448 70.144 8.816 64L30.704 7.84C31.408 7.904 32.528 7.936 34.064 7.936C35.6 7.936 36.688 7.904 37.328 7.84L60.656 67.936ZM36.656 48.352L27.152 22.432L17.168 48.352H36.656ZM134.287 26.656C137.551 26.656 139.983 26.56 141.583 26.368V28.288C140.239 28.672 139.023 29.472 137.935 30.688C136.847 31.904 135.887 33.856 135.055 36.544L122.287 76.192C121.583 76.128 120.527 76.096 119.119 76.096C117.775 76.096 116.751 76.128 116.047 76.192L102.991 40.576L92.3353 76.192C91.6953 76.128 90.6713 76.096 89.2633 76.096C87.8553 76.096 86.7993 76.128 86.0953 76.192L70.9273 33.76C70.1593 31.52 69.2953 30.08 68.3353 29.44C67.3753 28.736 66.3833 28.384 65.3592 28.384V26.368C69.5193 26.752 74.0633 26.944 78.9913 26.944C82.1913 26.944 86.3513 26.752 91.4713 26.368V28.384C89.3593 28.384 87.8233 28.544 86.8633 28.864C85.9673 29.184 85.5193 29.952 85.5193 31.168C85.5193 32 85.6793 32.864 85.9993 33.76L94.6393 60.928L105.103 26.272L108.655 26.368L112.111 26.272L124.591 62.944L130.639 43.648C131.535 40.64 131.983 38.208 131.983 36.352C131.983 31.36 129.455 28.672 124.399 28.288V26.368C127.407 26.56 130.703 26.656 134.287 26.656ZM170.716 69.472C175.964 69.472 180.188 66.912 183.388 61.792L185.116 62.368C183.836 66.528 181.532 70.08 178.204 73.024C174.94 75.904 170.844 77.344 165.916 77.344C159.132 77.344 153.724 75.2 149.692 70.912C145.724 66.56 143.74 60.16 143.74 51.712C143.74 43.072 145.884 36.48 150.172 31.936C154.46 27.328 160.156 25.024 167.26 25.024C179.292 25.024 185.308 32.128 185.308 46.336H158.332C158.268 47.296 158.236 48.8 158.236 50.848C158.236 55.072 158.812 58.592 159.964 61.408C161.18 64.224 162.716 66.272 164.572 67.552C166.492 68.832 168.54 69.472 170.716 69.472ZM166.684 27.04C164.38 27.04 162.46 28.48 160.924 31.36C159.452 34.176 158.524 38.56 158.14 44.512H173.212C173.34 39.456 172.828 35.296 171.676 32.032C170.588 28.704 168.924 27.04 166.684 27.04ZM239.635 68.992C240.659 70.528 241.491 71.68 242.131 72.448C242.771 73.152 243.603 73.664 244.627 73.984V76C239.507 75.744 236.147 75.616 234.547 75.616C232.435 75.616 228.307 75.744 222.163 76V73.984C223.059 73.984 223.763 73.824 224.275 73.504C224.787 73.184 225.043 72.736 225.043 72.16C225.043 71.84 224.883 71.36 224.563 70.72L215.059 53.536C214.419 52.448 213.747 51.712 213.043 51.328C212.339 50.944 211.443 50.688 210.355 50.56V67.072C210.355 69.696 210.771 71.52 211.603 72.544C212.435 73.504 213.939 73.984 216.115 73.984V76C209.715 75.744 205.555 75.616 203.635 75.616C201.459 75.616 197.043 75.744 190.387 76V73.984C192.627 73.984 194.195 73.504 195.091 72.544C196.051 71.52 196.531 69.696 196.531 67.072V12.352C196.531 9.408 196.051 7.264 195.091 5.92C194.195 4.576 192.627 3.904 190.387 3.904V1.888C192.435 2.08 194.419 2.17599 196.339 2.17599C201.907 2.17599 206.579 1.72799 210.355 0.831995V48.736C211.635 48.608 212.723 48.352 213.619 47.968C214.579 47.584 215.411 47.008 216.115 46.24L223.411 39.136C225.523 37.024 226.579 35.072 226.579 33.28C226.579 31.808 225.907 30.656 224.563 29.824C223.219 28.928 221.427 28.416 219.187 28.288V26.368C222.707 26.56 226.451 26.656 230.419 26.656C235.731 26.656 239.475 26.56 241.651 26.368V28.288C237.875 29.12 233.875 31.584 229.651 35.68L223.507 42.016L239.635 68.992ZM269.541 25.024C276.901 25.024 282.661 27.136 286.821 31.36C290.981 35.52 293.061 42.144 293.061 51.232C293.061 60.32 290.981 66.944 286.821 71.104C282.661 75.264 276.901 77.344 269.541 77.344C262.245 77.344 256.485 75.264 252.261 71.104C248.101 66.944 246.021 60.32 246.021 51.232C246.021 42.144 248.101 35.52 252.261 31.36C256.485 27.136 262.245 25.024 269.541 25.024ZM269.541 26.944C266.789 26.944 264.581 28.96 262.917 32.992C261.317 36.96 260.517 43.04 260.517 51.232C260.517 59.424 261.317 65.504 262.917 69.472C264.581 73.44 266.789 75.424 269.541 75.424C272.357 75.424 274.565 73.472 276.165 69.568C277.765 65.6 278.565 59.488 278.565 51.232C278.565 42.976 277.733 36.864 276.069 32.896C274.469 28.928 272.293 26.944 269.541 26.944Z" fill="#000000"/>
</svg>
