<?xml version="1.0" encoding="utf-8"?>
<!-- Generator: Adobe Illustrator 25.0.0, SVG Export Plug-In . SVG Version: 6.00 Build 0)  -->
<svg version="1.1" id="Layer_1" xmlns="http://www.w3.org/2000/svg" xmlns:xlink="http://www.w3.org/1999/xlink" x="0px" y="0px"
	 viewBox="0 0 77 76" style="enable-background:new 0 0 77 76;" xml:space="preserve">
<style type="text/css">
</style>
<path class="st0" d="M20.06,3.01c-0.41,0-0.75-0.34-0.75-0.75s0.34-0.75,0.75-0.75c0.42,0,0.75,0.34,0.75,0.75
	S20.47,3.01,20.06,3.01z M20.81,6.76c0-0.41-0.34-0.75-0.75-0.75c-0.41,0-0.75,0.34-0.75,0.75c0,0.42,0.34,0.75,0.75,0.75
	C20.47,7.51,20.81,7.17,20.81,6.76z M20.81,11.25c0-0.42-0.34-0.75-0.75-0.75c-0.41,0-0.75,0.34-0.75,0.75
	c0,0.41,0.34,0.75,0.75,0.75C20.47,12,20.81,11.67,20.81,11.25z M20.81,15.74c0-0.42-0.34-0.75-0.75-0.75
	c-0.41,0-0.75,0.34-0.75,0.75c0,0.42,0.34,0.75,0.75,0.75C20.47,16.5,20.81,16.16,20.81,15.74z M20.81,20.24
	c0-0.42-0.34-0.75-0.75-0.75c-0.41,0-0.75,0.34-0.75,0.75s0.34,0.75,0.75,0.75C20.47,20.99,20.81,20.65,20.81,20.24z M16.31,2.26
	c0-0.42-0.34-0.75-0.75-0.75c-0.42,0-0.75,0.34-0.75,0.75s0.34,0.75,0.75,0.75C15.98,3.01,16.31,2.68,16.31,2.26z M16.31,6.76
	c0-0.41-0.34-0.75-0.75-0.75c-0.42,0-0.75,0.34-0.75,0.75c0,0.42,0.34,0.75,0.75,0.75C15.98,7.51,16.31,7.17,16.31,6.76z
	 M16.31,11.25c0-0.42-0.34-0.75-0.75-0.75c-0.42,0-0.75,0.34-0.75,0.75c0,0.41,0.34,0.75,0.75,0.75
	C15.98,12,16.31,11.67,16.31,11.25z M16.31,15.74c0-0.42-0.34-0.75-0.75-0.75c-0.42,0-0.75,0.34-0.75,0.75
	c0,0.42,0.34,0.75,0.75,0.75C15.98,16.5,16.31,16.16,16.31,15.74z M16.31,20.24c0-0.42-0.34-0.75-0.75-0.75
	c-0.42,0-0.75,0.34-0.75,0.75s0.34,0.75,0.75,0.75C15.98,20.99,16.31,20.65,16.31,20.24z M11.82,2.26c0-0.42-0.34-0.75-0.75-0.75
	c-0.42,0-0.75,0.34-0.75,0.75s0.34,0.75,0.75,0.75C11.48,3.01,11.82,2.68,11.82,2.26z M11.82,6.76c0-0.41-0.34-0.75-0.75-0.75
	c-0.42,0-0.75,0.34-0.75,0.75c0,0.42,0.34,0.75,0.75,0.75C11.48,7.51,11.82,7.17,11.82,6.76z M11.82,11.25
	c0-0.42-0.34-0.75-0.75-0.75c-0.42,0-0.75,0.34-0.75,0.75c0,0.41,0.34,0.75,0.75,0.75C11.48,12,11.82,11.67,11.82,11.25z
	 M11.82,15.74c0-0.42-0.34-0.75-0.75-0.75c-0.42,0-0.75,0.34-0.75,0.75c0,0.42,0.34,0.75,0.75,0.75
	C11.48,16.5,11.82,16.16,11.82,15.74z M11.82,20.24c0-0.42-0.34-0.75-0.75-0.75c-0.42,0-0.75,0.34-0.75,0.75s0.34,0.75,0.75,0.75
	C11.48,20.99,11.82,20.65,11.82,20.24z M7.33,2.26c0-0.42-0.34-0.75-0.75-0.75S5.82,1.85,5.82,2.26s0.34,0.75,0.75,0.75
	S7.33,2.68,7.33,2.26z M7.33,6.76c0-0.41-0.34-0.75-0.75-0.75S5.82,6.34,5.82,6.76c0,0.42,0.34,0.75,0.75,0.75S7.33,7.17,7.33,6.76z
	 M7.33,11.25c0-0.42-0.34-0.75-0.75-0.75s-0.75,0.34-0.75,0.75c0,0.41,0.34,0.75,0.75,0.75S7.33,11.67,7.33,11.25z M7.33,15.74
	c0-0.42-0.34-0.75-0.75-0.75s-0.75,0.34-0.75,0.75c0,0.42,0.34,0.75,0.75,0.75S7.33,16.16,7.33,15.74z M7.33,20.24
	c0-0.42-0.34-0.75-0.75-0.75s-0.75,0.34-0.75,0.75s0.34,0.75,0.75,0.75S7.33,20.65,7.33,20.24z M2.83,2.26
	c0-0.42-0.34-0.75-0.75-0.75c-0.42,0-0.75,0.34-0.75,0.75s0.34,0.75,0.75,0.75C2.5,3.01,2.83,2.68,2.83,2.26z M2.83,6.76
	c0-0.41-0.34-0.75-0.75-0.75c-0.42,0-0.75,0.34-0.75,0.75c0,0.42,0.34,0.75,0.75,0.75C2.5,7.51,2.83,7.17,2.83,6.76z M2.83,11.25
	c0-0.42-0.34-0.75-0.75-0.75c-0.42,0-0.75,0.34-0.75,0.75c0,0.41,0.34,0.75,0.75,0.75C2.5,12,2.83,11.67,2.83,11.25z M2.83,15.74
	c0-0.42-0.34-0.75-0.75-0.75c-0.42,0-0.75,0.34-0.75,0.75c0,0.42,0.34,0.75,0.75,0.75C2.5,16.5,2.83,16.16,2.83,15.74z M2.83,20.24
	c0-0.42-0.34-0.75-0.75-0.75c-0.42,0-0.75,0.34-0.75,0.75s0.34,0.75,0.75,0.75C2.5,20.99,2.83,20.65,2.83,20.24z"/>
<path class="st0" d="M20.06,20.99c-0.41,0-0.75-0.34-0.75-0.75c0-0.42,0.34-0.75,0.75-0.75c0.42,0,0.75,0.34,0.75,0.75
	C20.81,20.65,20.47,20.99,20.06,20.99z M20.81,24.73c0-0.41-0.34-0.75-0.75-0.75c-0.41,0-0.75,0.34-0.75,0.75
	c0,0.42,0.34,0.75,0.75,0.75C20.47,25.48,20.81,25.15,20.81,24.73z M20.81,29.23c0-0.42-0.34-0.75-0.75-0.75
	c-0.41,0-0.75,0.34-0.75,0.75c0,0.41,0.34,0.75,0.75,0.75C20.47,29.98,20.81,29.64,20.81,29.23z M20.81,33.72
	c0-0.42-0.34-0.75-0.75-0.75c-0.41,0-0.75,0.34-0.75,0.75c0,0.42,0.34,0.75,0.75,0.75C20.47,34.47,20.81,34.14,20.81,33.72z
	 M20.81,38.21c0-0.42-0.34-0.75-0.75-0.75c-0.41,0-0.75,0.34-0.75,0.75c0,0.42,0.34,0.75,0.75,0.75
	C20.47,38.97,20.81,38.63,20.81,38.21z M16.31,20.24c0-0.42-0.34-0.75-0.75-0.75c-0.42,0-0.75,0.34-0.75,0.75
	c0,0.42,0.34,0.75,0.75,0.75C15.98,20.99,16.31,20.65,16.31,20.24z M16.31,24.73c0-0.41-0.34-0.75-0.75-0.75
	c-0.42,0-0.75,0.34-0.75,0.75c0,0.42,0.34,0.75,0.75,0.75C15.98,25.48,16.31,25.15,16.31,24.73z M16.31,29.23
	c0-0.42-0.34-0.75-0.75-0.75c-0.42,0-0.75,0.34-0.75,0.75c0,0.41,0.34,0.75,0.75,0.75C15.98,29.98,16.31,29.64,16.31,29.23z
	 M16.31,33.72c0-0.42-0.34-0.75-0.75-0.75c-0.42,0-0.75,0.34-0.75,0.75c0,0.42,0.34,0.75,0.75,0.75
	C15.98,34.47,16.31,34.14,16.31,33.72z M16.31,38.21c0-0.42-0.34-0.75-0.75-0.75c-0.42,0-0.75,0.34-0.75,0.75
	c0,0.42,0.34,0.75,0.75,0.75C15.98,38.97,16.31,38.63,16.31,38.21z M11.82,20.24c0-0.42-0.34-0.75-0.75-0.75
	c-0.42,0-0.75,0.34-0.75,0.75c0,0.42,0.34,0.75,0.75,0.75C11.48,20.99,11.82,20.65,11.82,20.24z M11.82,24.73
	c0-0.41-0.34-0.75-0.75-0.75c-0.42,0-0.75,0.34-0.75,0.75c0,0.42,0.34,0.75,0.75,0.75C11.48,25.48,11.82,25.15,11.82,24.73z
	 M11.82,29.23c0-0.42-0.34-0.75-0.75-0.75c-0.42,0-0.75,0.34-0.75,0.75c0,0.41,0.34,0.75,0.75,0.75
	C11.48,29.98,11.82,29.64,11.82,29.23z M11.82,33.72c0-0.42-0.34-0.75-0.75-0.75c-0.42,0-0.75,0.34-0.75,0.75
	c0,0.42,0.34,0.75,0.75,0.75C11.48,34.47,11.82,34.14,11.82,33.72z M11.82,38.21c0-0.42-0.34-0.75-0.75-0.75
	c-0.42,0-0.75,0.34-0.75,0.75c0,0.42,0.34,0.75,0.75,0.75C11.48,38.97,11.82,38.63,11.82,38.21z M7.33,20.24
	c0-0.42-0.34-0.75-0.75-0.75s-0.75,0.34-0.75,0.75c0,0.42,0.34,0.75,0.75,0.75S7.33,20.65,7.33,20.24z M7.33,24.73
	c0-0.41-0.34-0.75-0.75-0.75s-0.75,0.34-0.75,0.75c0,0.42,0.34,0.75,0.75,0.75S7.33,25.15,7.33,24.73z M7.33,29.23
	c0-0.42-0.34-0.75-0.75-0.75s-0.75,0.34-0.75,0.75c0,0.41,0.34,0.75,0.75,0.75S7.33,29.64,7.33,29.23z M7.33,33.72
	c0-0.42-0.34-0.75-0.75-0.75s-0.75,0.34-0.75,0.75c0,0.42,0.34,0.75,0.75,0.75S7.33,34.14,7.33,33.72z M7.33,38.21
	c0-0.42-0.34-0.75-0.75-0.75s-0.75,0.34-0.75,0.75c0,0.42,0.34,0.75,0.75,0.75S7.33,38.63,7.33,38.21z M2.83,20.24
	c0-0.42-0.34-0.75-0.75-0.75c-0.42,0-0.75,0.34-0.75,0.75c0,0.42,0.34,0.75,0.75,0.75C2.5,20.99,2.83,20.65,2.83,20.24z M2.83,24.73
	c0-0.41-0.34-0.75-0.75-0.75c-0.42,0-0.75,0.34-0.75,0.75c0,0.42,0.34,0.75,0.75,0.75C2.5,25.48,2.83,25.15,2.83,24.73z M2.83,29.23
	c0-0.42-0.34-0.75-0.75-0.75c-0.42,0-0.75,0.34-0.75,0.75c0,0.41,0.34,0.75,0.75,0.75C2.5,29.98,2.83,29.64,2.83,29.23z M2.83,33.72
	c0-0.42-0.34-0.75-0.75-0.75c-0.42,0-0.75,0.34-0.75,0.75c0,0.42,0.34,0.75,0.75,0.75C2.5,34.47,2.83,34.14,2.83,33.72z M2.83,38.21
	c0-0.42-0.34-0.75-0.75-0.75c-0.42,0-0.75,0.34-0.75,0.75c0,0.42,0.34,0.75,0.75,0.75C2.5,38.97,2.83,38.63,2.83,38.21z"/>
<path class="st0" d="M38.03,3.01c-0.41,0-0.75-0.34-0.75-0.75s0.34-0.75,0.75-0.75c0.42,0,0.75,0.34,0.75,0.75
	S38.45,3.01,38.03,3.01z M38.78,6.76c0-0.41-0.34-0.75-0.75-0.75c-0.41,0-0.75,0.34-0.75,0.75c0,0.42,0.34,0.75,0.75,0.75
	C38.45,7.51,38.78,7.17,38.78,6.76z M38.78,11.25c0-0.42-0.34-0.75-0.75-0.75c-0.41,0-0.75,0.34-0.75,0.75
	c0,0.41,0.34,0.75,0.75,0.75C38.45,12,38.78,11.67,38.78,11.25z M38.78,15.74c0-0.42-0.34-0.75-0.75-0.75
	c-0.41,0-0.75,0.34-0.75,0.75c0,0.42,0.34,0.75,0.75,0.75C38.45,16.5,38.78,16.16,38.78,15.74z M38.78,20.24
	c0-0.42-0.34-0.75-0.75-0.75c-0.41,0-0.75,0.34-0.75,0.75s0.34,0.75,0.75,0.75C38.45,20.99,38.78,20.65,38.78,20.24z M34.29,2.26
	c0-0.42-0.34-0.75-0.75-0.75c-0.42,0-0.75,0.34-0.75,0.75s0.34,0.75,0.75,0.75C33.95,3.01,34.29,2.68,34.29,2.26z M34.29,6.76
	c0-0.41-0.34-0.75-0.75-0.75c-0.42,0-0.75,0.34-0.75,0.75c0,0.42,0.34,0.75,0.75,0.75C33.95,7.51,34.29,7.17,34.29,6.76z
	 M34.29,11.25c0-0.42-0.34-0.75-0.75-0.75c-0.42,0-0.75,0.34-0.75,0.75c0,0.41,0.34,0.75,0.75,0.75
	C33.95,12,34.29,11.67,34.29,11.25z M34.29,15.74c0-0.42-0.34-0.75-0.75-0.75c-0.42,0-0.75,0.34-0.75,0.75
	c0,0.42,0.34,0.75,0.75,0.75C33.95,16.5,34.29,16.16,34.29,15.74z M34.29,20.24c0-0.42-0.34-0.75-0.75-0.75
	c-0.42,0-0.75,0.34-0.75,0.75s0.34,0.75,0.75,0.75C33.95,20.99,34.29,20.65,34.29,20.24z M29.8,2.26c0-0.42-0.34-0.75-0.75-0.75
	s-0.75,0.34-0.75,0.75s0.34,0.75,0.75,0.75S29.8,2.68,29.8,2.26z M29.8,6.76c0-0.41-0.34-0.75-0.75-0.75s-0.75,0.34-0.75,0.75
	c0,0.42,0.34,0.75,0.75,0.75S29.8,7.17,29.8,6.76z M29.8,11.25c0-0.42-0.34-0.75-0.75-0.75s-0.75,0.34-0.75,0.75
	c0,0.41,0.34,0.75,0.75,0.75S29.8,11.67,29.8,11.25z M29.8,15.74c0-0.42-0.34-0.75-0.75-0.75s-0.75,0.34-0.75,0.75
	c0,0.42,0.34,0.75,0.75,0.75S29.8,16.16,29.8,15.74z M29.8,20.24c0-0.42-0.34-0.75-0.75-0.75s-0.75,0.34-0.75,0.75
	s0.34,0.75,0.75,0.75S29.8,20.65,29.8,20.24z M25.3,2.26c0-0.42-0.34-0.75-0.75-0.75S23.8,1.85,23.8,2.26s0.34,0.75,0.75,0.75
	S25.3,2.68,25.3,2.26z M25.3,6.76c0-0.41-0.34-0.75-0.75-0.75S23.8,6.34,23.8,6.76c0,0.42,0.34,0.75,0.75,0.75S25.3,7.17,25.3,6.76z
	 M25.3,11.25c0-0.42-0.34-0.75-0.75-0.75s-0.75,0.34-0.75,0.75c0,0.41,0.34,0.75,0.75,0.75S25.3,11.67,25.3,11.25z M25.3,15.74
	c0-0.42-0.34-0.75-0.75-0.75s-0.75,0.34-0.75,0.75c0,0.42,0.34,0.75,0.75,0.75S25.3,16.16,25.3,15.74z M25.3,20.24
	c0-0.42-0.34-0.75-0.75-0.75s-0.75,0.34-0.75,0.75s0.34,0.75,0.75,0.75S25.3,20.65,25.3,20.24z M20.81,2.26
	c0-0.42-0.34-0.75-0.75-0.75c-0.42,0-0.75,0.34-0.75,0.75s0.34,0.75,0.75,0.75C20.47,3.01,20.81,2.68,20.81,2.26z M20.81,6.76
	c0-0.41-0.34-0.75-0.75-0.75c-0.42,0-0.75,0.34-0.75,0.75c0,0.42,0.34,0.75,0.75,0.75C20.47,7.51,20.81,7.17,20.81,6.76z
	 M20.81,11.25c0-0.42-0.34-0.75-0.75-0.75c-0.42,0-0.75,0.34-0.75,0.75c0,0.41,0.34,0.75,0.75,0.75
	C20.47,12,20.81,11.67,20.81,11.25z M20.81,15.74c0-0.42-0.34-0.75-0.75-0.75c-0.42,0-0.75,0.34-0.75,0.75
	c0,0.42,0.34,0.75,0.75,0.75C20.47,16.5,20.81,16.16,20.81,15.74z M20.81,20.24c0-0.42-0.34-0.75-0.75-0.75
	c-0.42,0-0.75,0.34-0.75,0.75s0.34,0.75,0.75,0.75C20.47,20.99,20.81,20.65,20.81,20.24z"/>
<path class="st0" d="M38.03,20.99c-0.41,0-0.75-0.34-0.75-0.75c0-0.42,0.34-0.75,0.75-0.75c0.42,0,0.75,0.34,0.75,0.75
	C38.78,20.65,38.45,20.99,38.03,20.99z M38.78,24.73c0-0.41-0.34-0.75-0.75-0.75c-0.41,0-0.75,0.34-0.75,0.75
	c0,0.42,0.34,0.75,0.75,0.75C38.45,25.48,38.78,25.15,38.78,24.73z M38.78,29.23c0-0.42-0.34-0.75-0.75-0.75
	c-0.41,0-0.75,0.34-0.75,0.75c0,0.41,0.34,0.75,0.75,0.75C38.45,29.98,38.78,29.64,38.78,29.23z M38.78,33.72
	c0-0.42-0.34-0.75-0.75-0.75c-0.41,0-0.75,0.34-0.75,0.75c0,0.42,0.34,0.75,0.75,0.75C38.45,34.47,38.78,34.14,38.78,33.72z
	 M38.78,38.21c0-0.42-0.34-0.75-0.75-0.75c-0.41,0-0.75,0.34-0.75,0.75c0,0.42,0.34,0.75,0.75,0.75
	C38.45,38.97,38.78,38.63,38.78,38.21z M34.29,20.24c0-0.42-0.34-0.75-0.75-0.75c-0.42,0-0.75,0.34-0.75,0.75
	c0,0.42,0.34,0.75,0.75,0.75C33.95,20.99,34.29,20.65,34.29,20.24z M34.29,24.73c0-0.41-0.34-0.75-0.75-0.75
	c-0.42,0-0.75,0.34-0.75,0.75c0,0.42,0.34,0.75,0.75,0.75C33.95,25.48,34.29,25.15,34.29,24.73z M34.29,29.23
	c0-0.42-0.34-0.75-0.75-0.75c-0.42,0-0.75,0.34-0.75,0.75c0,0.41,0.34,0.75,0.75,0.75C33.95,29.98,34.29,29.64,34.29,29.23z
	 M34.29,33.72c0-0.42-0.34-0.75-0.75-0.75c-0.42,0-0.75,0.34-0.75,0.75c0,0.42,0.34,0.75,0.75,0.75
	C33.95,34.47,34.29,34.14,34.29,33.72z M34.29,38.21c0-0.42-0.34-0.75-0.75-0.75c-0.42,0-0.75,0.34-0.75,0.75
	c0,0.42,0.34,0.75,0.75,0.75C33.95,38.97,34.29,38.63,34.29,38.21z M29.8,20.24c0-0.42-0.34-0.75-0.75-0.75s-0.75,0.34-0.75,0.75
	c0,0.42,0.34,0.75,0.75,0.75S29.8,20.65,29.8,20.24z M29.8,24.73c0-0.41-0.34-0.75-0.75-0.75s-0.75,0.34-0.75,0.75
	c0,0.42,0.34,0.75,0.75,0.75S29.8,25.15,29.8,24.73z M29.8,29.23c0-0.42-0.34-0.75-0.75-0.75s-0.75,0.34-0.75,0.75
	c0,0.41,0.34,0.75,0.75,0.75S29.8,29.64,29.8,29.23z M29.8,33.72c0-0.42-0.34-0.75-0.75-0.75s-0.75,0.34-0.75,0.75
	c0,0.42,0.34,0.75,0.75,0.75S29.8,34.14,29.8,33.72z M29.8,38.21c0-0.42-0.34-0.75-0.75-0.75s-0.75,0.34-0.75,0.75
	c0,0.42,0.34,0.75,0.75,0.75S29.8,38.63,29.8,38.21z M25.3,20.24c0-0.42-0.34-0.75-0.75-0.75s-0.75,0.34-0.75,0.75
	c0,0.42,0.34,0.75,0.75,0.75S25.3,20.65,25.3,20.24z M25.3,24.73c0-0.41-0.34-0.75-0.75-0.75s-0.75,0.34-0.75,0.75
	c0,0.42,0.34,0.75,0.75,0.75S25.3,25.15,25.3,24.73z M25.3,29.23c0-0.42-0.34-0.75-0.75-0.75s-0.75,0.34-0.75,0.75
	c0,0.41,0.34,0.75,0.75,0.75S25.3,29.64,25.3,29.23z M25.3,33.72c0-0.42-0.34-0.75-0.75-0.75s-0.75,0.34-0.75,0.75
	c0,0.42,0.34,0.75,0.75,0.75S25.3,34.14,25.3,33.72z M25.3,38.21c0-0.42-0.34-0.75-0.75-0.75s-0.75,0.34-0.75,0.75
	c0,0.42,0.34,0.75,0.75,0.75S25.3,38.63,25.3,38.21z M20.81,20.24c0-0.42-0.34-0.75-0.75-0.75c-0.42,0-0.75,0.34-0.75,0.75
	c0,0.42,0.34,0.75,0.75,0.75C20.47,20.99,20.81,20.65,20.81,20.24z M20.81,24.73c0-0.41-0.34-0.75-0.75-0.75
	c-0.42,0-0.75,0.34-0.75,0.75c0,0.42,0.34,0.75,0.75,0.75C20.47,25.48,20.81,25.15,20.81,24.73z M20.81,29.23
	c0-0.42-0.34-0.75-0.75-0.75c-0.42,0-0.75,0.34-0.75,0.75c0,0.41,0.34,0.75,0.75,0.75C20.47,29.98,20.81,29.64,20.81,29.23z
	 M20.81,33.72c0-0.42-0.34-0.75-0.75-0.75c-0.42,0-0.75,0.34-0.75,0.75c0,0.42,0.34,0.75,0.75,0.75
	C20.47,34.47,20.81,34.14,20.81,33.72z M20.81,38.21c0-0.42-0.34-0.75-0.75-0.75c-0.42,0-0.75,0.34-0.75,0.75
	c0,0.42,0.34,0.75,0.75,0.75C20.47,38.97,20.81,38.63,20.81,38.21z"/>
<path class="st0" d="M56.01,3.01c-0.41,0-0.75-0.34-0.75-0.75s0.34-0.75,0.75-0.75c0.42,0,0.75,0.34,0.75,0.75
	S56.42,3.01,56.01,3.01z M56.76,6.76c0-0.41-0.34-0.75-0.75-0.75c-0.41,0-0.75,0.34-0.75,0.75c0,0.42,0.34,0.75,0.75,0.75
	C56.42,7.51,56.76,7.17,56.76,6.76z M56.76,11.25c0-0.42-0.34-0.75-0.75-0.75c-0.41,0-0.75,0.34-0.75,0.75
	c0,0.41,0.34,0.75,0.75,0.75C56.42,12,56.76,11.67,56.76,11.25z M56.76,15.74c0-0.42-0.34-0.75-0.75-0.75
	c-0.41,0-0.75,0.34-0.75,0.75c0,0.42,0.34,0.75,0.75,0.75C56.42,16.5,56.76,16.16,56.76,15.74z M56.76,20.24
	c0-0.42-0.34-0.75-0.75-0.75c-0.41,0-0.75,0.34-0.75,0.75s0.34,0.75,0.75,0.75C56.42,20.99,56.76,20.65,56.76,20.24z M52.27,2.26
	c0-0.42-0.34-0.75-0.75-0.75c-0.42,0-0.75,0.34-0.75,0.75s0.34,0.75,0.75,0.75C51.93,3.01,52.27,2.68,52.27,2.26z M52.27,6.76
	c0-0.41-0.34-0.75-0.75-0.75c-0.42,0-0.75,0.34-0.75,0.75c0,0.42,0.34,0.75,0.75,0.75C51.93,7.51,52.27,7.17,52.27,6.76z
	 M52.27,11.25c0-0.42-0.34-0.75-0.75-0.75c-0.42,0-0.75,0.34-0.75,0.75c0,0.41,0.34,0.75,0.75,0.75
	C51.93,12,52.27,11.67,52.27,11.25z M52.27,15.74c0-0.42-0.34-0.75-0.75-0.75c-0.42,0-0.75,0.34-0.75,0.75
	c0,0.42,0.34,0.75,0.75,0.75C51.93,16.5,52.27,16.16,52.27,15.74z M52.27,20.24c0-0.42-0.34-0.75-0.75-0.75
	c-0.42,0-0.75,0.34-0.75,0.75s0.34,0.75,0.75,0.75C51.93,20.99,52.27,20.65,52.27,20.24z M47.77,2.26c0-0.42-0.34-0.75-0.75-0.75
	s-0.75,0.34-0.75,0.75s0.34,0.75,0.75,0.75S47.77,2.68,47.77,2.26z M47.77,6.76c0-0.41-0.34-0.75-0.75-0.75s-0.75,0.34-0.75,0.75
	c0,0.42,0.34,0.75,0.75,0.75S47.77,7.17,47.77,6.76z M47.77,11.25c0-0.42-0.34-0.75-0.75-0.75s-0.75,0.34-0.75,0.75
	c0,0.41,0.34,0.75,0.75,0.75S47.77,11.67,47.77,11.25z M47.77,15.74c0-0.42-0.34-0.75-0.75-0.75s-0.75,0.34-0.75,0.75
	c0,0.42,0.34,0.75,0.75,0.75S47.77,16.16,47.77,15.74z M47.77,20.24c0-0.42-0.34-0.75-0.75-0.75s-0.75,0.34-0.75,0.75
	s0.34,0.75,0.75,0.75S47.77,20.65,47.77,20.24z M43.28,2.26c0-0.42-0.34-0.75-0.75-0.75c-0.42,0-0.75,0.34-0.75,0.75
	s0.34,0.75,0.75,0.75C42.94,3.01,43.28,2.68,43.28,2.26z M43.28,6.76c0-0.41-0.34-0.75-0.75-0.75c-0.42,0-0.75,0.34-0.75,0.75
	c0,0.42,0.34,0.75,0.75,0.75C42.94,7.51,43.28,7.17,43.28,6.76z M43.28,11.25c0-0.42-0.34-0.75-0.75-0.75
	c-0.42,0-0.75,0.34-0.75,0.75c0,0.41,0.34,0.75,0.75,0.75C42.94,12,43.28,11.67,43.28,11.25z M43.28,15.74
	c0-0.42-0.34-0.75-0.75-0.75c-0.42,0-0.75,0.34-0.75,0.75c0,0.42,0.34,0.75,0.75,0.75C42.94,16.5,43.28,16.16,43.28,15.74z
	 M43.28,20.24c0-0.42-0.34-0.75-0.75-0.75c-0.42,0-0.75,0.34-0.75,0.75s0.34,0.75,0.75,0.75C42.94,20.99,43.28,20.65,43.28,20.24z
	 M38.78,2.26c0-0.42-0.34-0.75-0.75-0.75c-0.42,0-0.75,0.34-0.75,0.75s0.34,0.75,0.75,0.75C38.45,3.01,38.78,2.68,38.78,2.26z
	 M38.78,6.76c0-0.41-0.34-0.75-0.75-0.75c-0.42,0-0.75,0.34-0.75,0.75c0,0.42,0.34,0.75,0.75,0.75C38.45,7.51,38.78,7.17,38.78,6.76
	z M38.78,11.25c0-0.42-0.34-0.75-0.75-0.75c-0.42,0-0.75,0.34-0.75,0.75c0,0.41,0.34,0.75,0.75,0.75
	C38.45,12,38.78,11.67,38.78,11.25z M38.78,15.74c0-0.42-0.34-0.75-0.75-0.75c-0.42,0-0.75,0.34-0.75,0.75
	c0,0.42,0.34,0.75,0.75,0.75C38.45,16.5,38.78,16.16,38.78,15.74z M38.78,20.24c0-0.42-0.34-0.75-0.75-0.75
	c-0.42,0-0.75,0.34-0.75,0.75s0.34,0.75,0.75,0.75C38.45,20.99,38.78,20.65,38.78,20.24z"/>
<path class="st0" d="M56.01,20.99c-0.41,0-0.75-0.34-0.75-0.75c0-0.42,0.34-0.75,0.75-0.75c0.42,0,0.75,0.34,0.75,0.75
	C56.76,20.65,56.42,20.99,56.01,20.99z M56.76,24.73c0-0.41-0.34-0.75-0.75-0.75c-0.41,0-0.75,0.34-0.75,0.75
	c0,0.42,0.34,0.75,0.75,0.75C56.42,25.48,56.76,25.15,56.76,24.73z M56.76,29.23c0-0.42-0.34-0.75-0.75-0.75
	c-0.41,0-0.75,0.34-0.75,0.75c0,0.41,0.34,0.75,0.75,0.75C56.42,29.98,56.76,29.64,56.76,29.23z M56.76,33.72
	c0-0.42-0.34-0.75-0.75-0.75c-0.41,0-0.75,0.34-0.75,0.75c0,0.42,0.34,0.75,0.75,0.75C56.42,34.47,56.76,34.14,56.76,33.72z
	 M56.76,38.21c0-0.42-0.34-0.75-0.75-0.75c-0.41,0-0.75,0.34-0.75,0.75c0,0.42,0.34,0.75,0.75,0.75
	C56.42,38.97,56.76,38.63,56.76,38.21z M52.27,20.24c0-0.42-0.34-0.75-0.75-0.75c-0.42,0-0.75,0.34-0.75,0.75
	c0,0.42,0.34,0.75,0.75,0.75C51.93,20.99,52.27,20.65,52.27,20.24z M52.27,24.73c0-0.41-0.34-0.75-0.75-0.75
	c-0.42,0-0.75,0.34-0.75,0.75c0,0.42,0.34,0.75,0.75,0.75C51.93,25.48,52.27,25.15,52.27,24.73z M52.27,29.23
	c0-0.42-0.34-0.75-0.75-0.75c-0.42,0-0.75,0.34-0.75,0.75c0,0.41,0.34,0.75,0.75,0.75C51.93,29.98,52.27,29.64,52.27,29.23z
	 M52.27,33.72c0-0.42-0.34-0.75-0.75-0.75c-0.42,0-0.75,0.34-0.75,0.75c0,0.42,0.34,0.75,0.75,0.75
	C51.93,34.47,52.27,34.14,52.27,33.72z M52.27,38.21c0-0.42-0.34-0.75-0.75-0.75c-0.42,0-0.75,0.34-0.75,0.75
	c0,0.42,0.34,0.75,0.75,0.75C51.93,38.97,52.27,38.63,52.27,38.21z M47.77,20.24c0-0.42-0.34-0.75-0.75-0.75s-0.75,0.34-0.75,0.75
	c0,0.42,0.34,0.75,0.75,0.75S47.77,20.65,47.77,20.24z M47.77,24.73c0-0.41-0.34-0.75-0.75-0.75s-0.75,0.34-0.75,0.75
	c0,0.42,0.34,0.75,0.75,0.75S47.77,25.15,47.77,24.73z M47.77,29.23c0-0.42-0.34-0.75-0.75-0.75s-0.75,0.34-0.75,0.75
	c0,0.41,0.34,0.75,0.75,0.75S47.77,29.64,47.77,29.23z M47.77,33.72c0-0.42-0.34-0.75-0.75-0.75s-0.75,0.34-0.75,0.75
	c0,0.42,0.34,0.75,0.75,0.75S47.77,34.14,47.77,33.72z M47.77,38.21c0-0.42-0.34-0.75-0.75-0.75s-0.75,0.34-0.75,0.75
	c0,0.42,0.34,0.75,0.75,0.75S47.77,38.63,47.77,38.21z M43.28,20.24c0-0.42-0.34-0.75-0.75-0.75c-0.42,0-0.75,0.34-0.75,0.75
	c0,0.42,0.34,0.75,0.75,0.75C42.94,20.99,43.28,20.65,43.28,20.24z M43.28,24.73c0-0.41-0.34-0.75-0.75-0.75
	c-0.42,0-0.75,0.34-0.75,0.75c0,0.42,0.34,0.75,0.75,0.75C42.94,25.48,43.28,25.15,43.28,24.73z M43.28,29.23
	c0-0.42-0.34-0.75-0.75-0.75c-0.42,0-0.75,0.34-0.75,0.75c0,0.41,0.34,0.75,0.75,0.75C42.94,29.98,43.28,29.64,43.28,29.23z
	 M43.28,33.72c0-0.42-0.34-0.75-0.75-0.75c-0.42,0-0.75,0.34-0.75,0.75c0,0.42,0.34,0.75,0.75,0.75
	C42.94,34.47,43.28,34.14,43.28,33.72z M43.28,38.21c0-0.42-0.34-0.75-0.75-0.75c-0.42,0-0.75,0.34-0.75,0.75
	c0,0.42,0.34,0.75,0.75,0.75C42.94,38.97,43.28,38.63,43.28,38.21z M38.78,20.24c0-0.42-0.34-0.75-0.75-0.75
	c-0.42,0-0.75,0.34-0.75,0.75c0,0.42,0.34,0.75,0.75,0.75C38.45,20.99,38.78,20.65,38.78,20.24z M38.78,24.73
	c0-0.41-0.34-0.75-0.75-0.75c-0.42,0-0.75,0.34-0.75,0.75c0,0.42,0.34,0.75,0.75,0.75C38.45,25.48,38.78,25.15,38.78,24.73z
	 M38.78,29.23c0-0.42-0.34-0.75-0.75-0.75c-0.42,0-0.75,0.34-0.75,0.75c0,0.41,0.34,0.75,0.75,0.75
	C38.45,29.98,38.78,29.64,38.78,29.23z M38.78,33.72c0-0.42-0.34-0.75-0.75-0.75c-0.42,0-0.75,0.34-0.75,0.75
	c0,0.42,0.34,0.75,0.75,0.75C38.45,34.47,38.78,34.14,38.78,33.72z M38.78,38.21c0-0.42-0.34-0.75-0.75-0.75
	c-0.42,0-0.75,0.34-0.75,0.75c0,0.42,0.34,0.75,0.75,0.75C38.45,38.97,38.78,38.63,38.78,38.21z"/>
<path class="st0" d="M73.98,3.01c-0.41,0-0.75-0.34-0.75-0.75s0.34-0.75,0.75-0.75c0.42,0,0.75,0.34,0.75,0.75S74.4,3.01,73.98,3.01
	z M74.74,6.76c0-0.41-0.34-0.75-0.75-0.75c-0.41,0-0.75,0.34-0.75,0.75c0,0.42,0.34,0.75,0.75,0.75C74.4,7.51,74.74,7.17,74.74,6.76
	z M74.74,11.25c0-0.42-0.34-0.75-0.75-0.75c-0.41,0-0.75,0.34-0.75,0.75c0,0.41,0.34,0.75,0.75,0.75
	C74.4,12,74.74,11.67,74.74,11.25z M74.74,15.74c0-0.42-0.34-0.75-0.75-0.75c-0.41,0-0.75,0.34-0.75,0.75
	c0,0.42,0.34,0.75,0.75,0.75C74.4,16.5,74.74,16.16,74.74,15.74z M74.74,20.24c0-0.42-0.34-0.75-0.75-0.75
	c-0.41,0-0.75,0.34-0.75,0.75s0.34,0.75,0.75,0.75C74.4,20.99,74.74,20.65,74.74,20.24z M70.24,2.26c0-0.42-0.34-0.75-0.75-0.75
	s-0.75,0.34-0.75,0.75s0.34,0.75,0.75,0.75S70.24,2.68,70.24,2.26z M70.24,6.76c0-0.41-0.34-0.75-0.75-0.75s-0.75,0.34-0.75,0.75
	c0,0.42,0.34,0.75,0.75,0.75S70.24,7.17,70.24,6.76z M70.24,11.25c0-0.42-0.34-0.75-0.75-0.75s-0.75,0.34-0.75,0.75
	c0,0.41,0.34,0.75,0.75,0.75S70.24,11.67,70.24,11.25z M70.24,15.74c0-0.42-0.34-0.75-0.75-0.75s-0.75,0.34-0.75,0.75
	c0,0.42,0.34,0.75,0.75,0.75S70.24,16.16,70.24,15.74z M70.24,20.24c0-0.42-0.34-0.75-0.75-0.75s-0.75,0.34-0.75,0.75
	s0.34,0.75,0.75,0.75S70.24,20.65,70.24,20.24z M65.75,2.26c0-0.42-0.34-0.75-0.75-0.75s-0.75,0.34-0.75,0.75S64.58,3.01,65,3.01
	S65.75,2.68,65.75,2.26z M65.75,6.76c0-0.41-0.34-0.75-0.75-0.75s-0.75,0.34-0.75,0.75c0,0.42,0.34,0.75,0.75,0.75
	S65.75,7.17,65.75,6.76z M65.75,11.25c0-0.42-0.34-0.75-0.75-0.75s-0.75,0.34-0.75,0.75c0,0.41,0.34,0.75,0.75,0.75
	S65.75,11.67,65.75,11.25z M65.75,15.74c0-0.42-0.34-0.75-0.75-0.75s-0.75,0.34-0.75,0.75c0,0.42,0.34,0.75,0.75,0.75
	S65.75,16.16,65.75,15.74z M65.75,20.24c0-0.42-0.34-0.75-0.75-0.75s-0.75,0.34-0.75,0.75s0.34,0.75,0.75,0.75
	S65.75,20.65,65.75,20.24z M61.25,2.26c0-0.42-0.34-0.75-0.75-0.75c-0.42,0-0.75,0.34-0.75,0.75s0.34,0.75,0.75,0.75
	C60.92,3.01,61.25,2.68,61.25,2.26z M61.25,6.76c0-0.41-0.34-0.75-0.75-0.75c-0.42,0-0.75,0.34-0.75,0.75
	c0,0.42,0.34,0.75,0.75,0.75C60.92,7.51,61.25,7.17,61.25,6.76z M61.25,11.25c0-0.42-0.34-0.75-0.75-0.75
	c-0.42,0-0.75,0.34-0.75,0.75c0,0.41,0.34,0.75,0.75,0.75C60.92,12,61.25,11.67,61.25,11.25z M61.25,15.74
	c0-0.42-0.34-0.75-0.75-0.75c-0.42,0-0.75,0.34-0.75,0.75c0,0.42,0.34,0.75,0.75,0.75C60.92,16.5,61.25,16.16,61.25,15.74z
	 M61.25,20.24c0-0.42-0.34-0.75-0.75-0.75c-0.42,0-0.75,0.34-0.75,0.75s0.34,0.75,0.75,0.75C60.92,20.99,61.25,20.65,61.25,20.24z
	 M56.76,2.26c0-0.42-0.34-0.75-0.75-0.75c-0.42,0-0.75,0.34-0.75,0.75s0.34,0.75,0.75,0.75C56.42,3.01,56.76,2.68,56.76,2.26z
	 M56.76,6.76c0-0.41-0.34-0.75-0.75-0.75c-0.42,0-0.75,0.34-0.75,0.75c0,0.42,0.34,0.75,0.75,0.75C56.42,7.51,56.76,7.17,56.76,6.76
	z M56.76,11.25c0-0.42-0.34-0.75-0.75-0.75c-0.42,0-0.75,0.34-0.75,0.75c0,0.41,0.34,0.75,0.75,0.75
	C56.42,12,56.76,11.67,56.76,11.25z M56.76,15.74c0-0.42-0.34-0.75-0.75-0.75c-0.42,0-0.75,0.34-0.75,0.75
	c0,0.42,0.34,0.75,0.75,0.75C56.42,16.5,56.76,16.16,56.76,15.74z M56.76,20.24c0-0.42-0.34-0.75-0.75-0.75
	c-0.42,0-0.75,0.34-0.75,0.75s0.34,0.75,0.75,0.75C56.42,20.99,56.76,20.65,56.76,20.24z"/>
<path class="st0" d="M73.98,20.99c-0.41,0-0.75-0.34-0.75-0.75c0-0.42,0.34-0.75,0.75-0.75c0.42,0,0.75,0.34,0.75,0.75
	C74.74,20.65,74.4,20.99,73.98,20.99z M74.74,24.73c0-0.41-0.34-0.75-0.75-0.75c-0.41,0-0.75,0.34-0.75,0.75
	c0,0.42,0.34,0.75,0.75,0.75C74.4,25.48,74.74,25.15,74.74,24.73z M74.74,29.23c0-0.42-0.34-0.75-0.75-0.75
	c-0.41,0-0.75,0.34-0.75,0.75c0,0.41,0.34,0.75,0.75,0.75C74.4,29.98,74.74,29.64,74.74,29.23z M74.74,33.72
	c0-0.42-0.34-0.75-0.75-0.75c-0.41,0-0.75,0.34-0.75,0.75c0,0.42,0.34,0.75,0.75,0.75C74.4,34.47,74.74,34.14,74.74,33.72z
	 M74.74,38.21c0-0.42-0.34-0.75-0.75-0.75c-0.41,0-0.75,0.34-0.75,0.75c0,0.42,0.34,0.75,0.75,0.75
	C74.4,38.97,74.74,38.63,74.74,38.21z M70.24,20.24c0-0.42-0.34-0.75-0.75-0.75s-0.75,0.34-0.75,0.75c0,0.42,0.34,0.75,0.75,0.75
	S70.24,20.65,70.24,20.24z M70.24,24.73c0-0.41-0.34-0.75-0.75-0.75s-0.75,0.34-0.75,0.75c0,0.42,0.34,0.75,0.75,0.75
	S70.24,25.15,70.24,24.73z M70.24,29.23c0-0.42-0.34-0.75-0.75-0.75s-0.75,0.34-0.75,0.75c0,0.41,0.34,0.75,0.75,0.75
	S70.24,29.64,70.24,29.23z M70.24,33.72c0-0.42-0.34-0.75-0.75-0.75s-0.75,0.34-0.75,0.75c0,0.42,0.34,0.75,0.75,0.75
	S70.24,34.14,70.24,33.72z M70.24,38.21c0-0.42-0.34-0.75-0.75-0.75s-0.75,0.34-0.75,0.75c0,0.42,0.34,0.75,0.75,0.75
	S70.24,38.63,70.24,38.21z M65.75,20.24c0-0.42-0.34-0.75-0.75-0.75s-0.75,0.34-0.75,0.75c0,0.42,0.34,0.75,0.75,0.75
	S65.75,20.65,65.75,20.24z M65.75,24.73c0-0.41-0.34-0.75-0.75-0.75s-0.75,0.34-0.75,0.75c0,0.42,0.34,0.75,0.75,0.75
	S65.75,25.15,65.75,24.73z M65.75,29.23c0-0.42-0.34-0.75-0.75-0.75s-0.75,0.34-0.75,0.75c0,0.41,0.34,0.75,0.75,0.75
	S65.75,29.64,65.75,29.23z M65.75,33.72c0-0.42-0.34-0.75-0.75-0.75s-0.75,0.34-0.75,0.75c0,0.42,0.34,0.75,0.75,0.75
	S65.75,34.14,65.75,33.72z M65.75,38.21c0-0.42-0.34-0.75-0.75-0.75s-0.75,0.34-0.75,0.75c0,0.42,0.34,0.75,0.75,0.75
	S65.75,38.63,65.75,38.21z M61.25,20.24c0-0.42-0.34-0.75-0.75-0.75c-0.42,0-0.75,0.34-0.75,0.75c0,0.42,0.34,0.75,0.75,0.75
	C60.92,20.99,61.25,20.65,61.25,20.24z M61.25,24.73c0-0.41-0.34-0.75-0.75-0.75c-0.42,0-0.75,0.34-0.75,0.75
	c0,0.42,0.34,0.75,0.75,0.75C60.92,25.48,61.25,25.15,61.25,24.73z M61.25,29.23c0-0.42-0.34-0.75-0.75-0.75
	c-0.42,0-0.75,0.34-0.75,0.75c0,0.41,0.34,0.75,0.75,0.75C60.92,29.98,61.25,29.64,61.25,29.23z M61.25,33.72
	c0-0.42-0.34-0.75-0.75-0.75c-0.42,0-0.75,0.34-0.75,0.75c0,0.42,0.34,0.75,0.75,0.75C60.92,34.47,61.25,34.14,61.25,33.72z
	 M61.25,38.21c0-0.42-0.34-0.75-0.75-0.75c-0.42,0-0.75,0.34-0.75,0.75c0,0.42,0.34,0.75,0.75,0.75
	C60.92,38.97,61.25,38.63,61.25,38.21z M56.76,20.24c0-0.42-0.34-0.75-0.75-0.75c-0.42,0-0.75,0.34-0.75,0.75
	c0,0.42,0.34,0.75,0.75,0.75C56.42,20.99,56.76,20.65,56.76,20.24z M56.76,24.73c0-0.41-0.34-0.75-0.75-0.75
	c-0.42,0-0.75,0.34-0.75,0.75c0,0.42,0.34,0.75,0.75,0.75C56.42,25.48,56.76,25.15,56.76,24.73z M56.76,29.23
	c0-0.42-0.34-0.75-0.75-0.75c-0.42,0-0.75,0.34-0.75,0.75c0,0.41,0.34,0.75,0.75,0.75C56.42,29.98,56.76,29.64,56.76,29.23z
	 M56.76,33.72c0-0.42-0.34-0.75-0.75-0.75c-0.42,0-0.75,0.34-0.75,0.75c0,0.42,0.34,0.75,0.75,0.75
	C56.42,34.47,56.76,34.14,56.76,33.72z M56.76,38.21c0-0.42-0.34-0.75-0.75-0.75c-0.42,0-0.75,0.34-0.75,0.75
	c0,0.42,0.34,0.75,0.75,0.75C56.42,38.97,56.76,38.63,56.76,38.21z"/>
<path class="st0" d="M20.06,38.97c-0.41,0-0.75-0.34-0.75-0.75c0-0.42,0.34-0.75,0.75-0.75c0.42,0,0.75,0.34,0.75,0.75
	C20.81,38.63,20.47,38.97,20.06,38.97z M20.81,42.71c0-0.41-0.34-0.75-0.75-0.75c-0.41,0-0.75,0.34-0.75,0.75
	c0,0.42,0.34,0.75,0.75,0.75C20.47,43.46,20.81,43.12,20.81,42.71z M20.81,47.2c0-0.42-0.34-0.75-0.75-0.75
	c-0.41,0-0.75,0.34-0.75,0.75c0,0.41,0.34,0.75,0.75,0.75C20.47,47.95,20.81,47.62,20.81,47.2z M20.81,51.7
	c0-0.42-0.34-0.75-0.75-0.75c-0.41,0-0.75,0.34-0.75,0.75s0.34,0.75,0.75,0.75C20.47,52.45,20.81,52.11,20.81,51.7z M20.81,56.19
	c0-0.42-0.34-0.75-0.75-0.75c-0.41,0-0.75,0.34-0.75,0.75c0,0.42,0.34,0.75,0.75,0.75C20.47,56.94,20.81,56.6,20.81,56.19z
	 M16.31,38.21c0-0.42-0.34-0.75-0.75-0.75c-0.42,0-0.75,0.34-0.75,0.75c0,0.42,0.34,0.75,0.75,0.75
	C15.98,38.97,16.31,38.63,16.31,38.21z M16.31,42.71c0-0.41-0.34-0.75-0.75-0.75c-0.42,0-0.75,0.34-0.75,0.75
	c0,0.42,0.34,0.75,0.75,0.75C15.98,43.46,16.31,43.12,16.31,42.71z M16.31,47.2c0-0.42-0.34-0.75-0.75-0.75
	c-0.42,0-0.75,0.34-0.75,0.75c0,0.41,0.34,0.75,0.75,0.75C15.98,47.95,16.31,47.62,16.31,47.2z M16.31,51.7
	c0-0.42-0.34-0.75-0.75-0.75c-0.42,0-0.75,0.34-0.75,0.75s0.34,0.75,0.75,0.75C15.98,52.45,16.31,52.11,16.31,51.7z M16.31,56.19
	c0-0.42-0.34-0.75-0.75-0.75c-0.42,0-0.75,0.34-0.75,0.75c0,0.42,0.34,0.75,0.75,0.75C15.98,56.94,16.31,56.6,16.31,56.19z
	 M11.82,38.21c0-0.42-0.34-0.75-0.75-0.75c-0.42,0-0.75,0.34-0.75,0.75c0,0.42,0.34,0.75,0.75,0.75
	C11.48,38.97,11.82,38.63,11.82,38.21z M11.82,42.71c0-0.41-0.34-0.75-0.75-0.75c-0.42,0-0.75,0.34-0.75,0.75
	c0,0.42,0.34,0.75,0.75,0.75C11.48,43.46,11.82,43.12,11.82,42.71z M11.82,47.2c0-0.42-0.34-0.75-0.75-0.75
	c-0.42,0-0.75,0.34-0.75,0.75c0,0.41,0.34,0.75,0.75,0.75C11.48,47.95,11.82,47.62,11.82,47.2z M11.82,51.7
	c0-0.42-0.34-0.75-0.75-0.75c-0.42,0-0.75,0.34-0.75,0.75s0.34,0.75,0.75,0.75C11.48,52.45,11.82,52.11,11.82,51.7z M11.82,56.19
	c0-0.42-0.34-0.75-0.75-0.75c-0.42,0-0.75,0.34-0.75,0.75c0,0.42,0.34,0.75,0.75,0.75C11.48,56.94,11.82,56.6,11.82,56.19z
	 M7.33,38.21c0-0.42-0.34-0.75-0.75-0.75c-0.42,0-0.75,0.34-0.75,0.75c0,0.42,0.34,0.75,0.75,0.75C6.99,38.97,7.33,38.63,7.33,38.21
	z M7.33,42.71c0-0.41-0.34-0.75-0.75-0.75c-0.42,0-0.75,0.34-0.75,0.75c0,0.42,0.34,0.75,0.75,0.75
	C6.99,43.46,7.33,43.12,7.33,42.71z M7.33,47.2c0-0.42-0.34-0.75-0.75-0.75c-0.42,0-0.75,0.34-0.75,0.75c0,0.41,0.34,0.75,0.75,0.75
	C6.99,47.95,7.33,47.62,7.33,47.2z M7.33,51.7c0-0.42-0.34-0.75-0.75-0.75c-0.42,0-0.75,0.34-0.75,0.75s0.34,0.75,0.75,0.75
	C6.99,52.45,7.33,52.11,7.33,51.7z M7.33,56.19c0-0.42-0.34-0.75-0.75-0.75c-0.42,0-0.75,0.34-0.75,0.75c0,0.42,0.34,0.75,0.75,0.75
	C6.99,56.94,7.33,56.6,7.33,56.19z M2.83,38.21c0-0.42-0.34-0.75-0.75-0.75c-0.42,0-0.75,0.34-0.75,0.75c0,0.42,0.34,0.75,0.75,0.75
	C2.5,38.97,2.83,38.63,2.83,38.21z M2.83,42.71c0-0.41-0.34-0.75-0.75-0.75c-0.42,0-0.75,0.34-0.75,0.75c0,0.42,0.34,0.75,0.75,0.75
	C2.5,43.46,2.83,43.12,2.83,42.71z M2.83,47.2c0-0.42-0.34-0.75-0.75-0.75c-0.42,0-0.75,0.34-0.75,0.75c0,0.41,0.34,0.75,0.75,0.75
	C2.5,47.95,2.83,47.62,2.83,47.2z M2.83,51.7c0-0.42-0.34-0.75-0.75-0.75c-0.42,0-0.75,0.34-0.75,0.75s0.34,0.75,0.75,0.75
	C2.5,52.45,2.83,52.11,2.83,51.7z M2.83,56.19c0-0.42-0.34-0.75-0.75-0.75c-0.42,0-0.75,0.34-0.75,0.75c0,0.42,0.34,0.75,0.75,0.75
	C2.5,56.94,2.83,56.6,2.83,56.19z"/>
<path class="st0" d="M20.06,56.94c-0.41,0-0.75-0.34-0.75-0.75c0-0.42,0.34-0.75,0.75-0.75c0.42,0,0.75,0.34,0.75,0.75
	C20.81,56.6,20.47,56.94,20.06,56.94z M20.81,60.68c0-0.41-0.34-0.75-0.75-0.75c-0.41,0-0.75,0.34-0.75,0.75
	c0,0.42,0.34,0.75,0.75,0.75C20.47,61.44,20.81,61.1,20.81,60.68z M20.81,65.18c0-0.42-0.34-0.75-0.75-0.75
	c-0.41,0-0.75,0.34-0.75,0.75c0,0.41,0.34,0.75,0.75,0.75C20.47,65.93,20.81,65.59,20.81,65.18z M20.81,69.67
	c0-0.42-0.34-0.75-0.75-0.75c-0.41,0-0.75,0.34-0.75,0.75s0.34,0.75,0.75,0.75C20.47,70.42,20.81,70.09,20.81,69.67z M20.81,74.17
	c0-0.42-0.34-0.75-0.75-0.75c-0.41,0-0.75,0.34-0.75,0.75s0.34,0.75,0.75,0.75C20.47,74.92,20.81,74.58,20.81,74.17z M16.31,56.19
	c0-0.42-0.34-0.75-0.75-0.75c-0.42,0-0.75,0.34-0.75,0.75c0,0.42,0.34,0.75,0.75,0.75C15.98,56.94,16.31,56.6,16.31,56.19z
	 M16.31,60.68c0-0.41-0.34-0.75-0.75-0.75c-0.42,0-0.75,0.34-0.75,0.75c0,0.42,0.34,0.75,0.75,0.75
	C15.98,61.44,16.31,61.1,16.31,60.68z M16.31,65.18c0-0.42-0.34-0.75-0.75-0.75c-0.42,0-0.75,0.34-0.75,0.75
	c0,0.41,0.34,0.75,0.75,0.75C15.98,65.93,16.31,65.59,16.31,65.18z M16.31,69.67c0-0.42-0.34-0.75-0.75-0.75
	c-0.42,0-0.75,0.34-0.75,0.75s0.34,0.75,0.75,0.75C15.98,70.42,16.31,70.09,16.31,69.67z M16.31,74.17c0-0.42-0.34-0.75-0.75-0.75
	c-0.42,0-0.75,0.34-0.75,0.75s0.34,0.75,0.75,0.75C15.98,74.92,16.31,74.58,16.31,74.17z M11.82,56.19c0-0.42-0.34-0.75-0.75-0.75
	c-0.42,0-0.75,0.34-0.75,0.75c0,0.42,0.34,0.75,0.75,0.75C11.48,56.94,11.82,56.6,11.82,56.19z M11.82,60.68
	c0-0.41-0.34-0.75-0.75-0.75c-0.42,0-0.75,0.34-0.75,0.75c0,0.42,0.34,0.75,0.75,0.75C11.48,61.44,11.82,61.1,11.82,60.68z
	 M11.82,65.18c0-0.42-0.34-0.75-0.75-0.75c-0.42,0-0.75,0.34-0.75,0.75c0,0.41,0.34,0.75,0.75,0.75
	C11.48,65.93,11.82,65.59,11.82,65.18z M11.82,69.67c0-0.42-0.34-0.75-0.75-0.75c-0.42,0-0.75,0.34-0.75,0.75s0.34,0.75,0.75,0.75
	C11.48,70.42,11.82,70.09,11.82,69.67z M11.82,74.17c0-0.42-0.34-0.75-0.75-0.75c-0.42,0-0.75,0.34-0.75,0.75s0.34,0.75,0.75,0.75
	C11.48,74.92,11.82,74.58,11.82,74.17z M7.33,56.19c0-0.42-0.34-0.75-0.75-0.75c-0.42,0-0.75,0.34-0.75,0.75
	c0,0.42,0.34,0.75,0.75,0.75C6.99,56.94,7.33,56.6,7.33,56.19z M7.33,60.68c0-0.41-0.34-0.75-0.75-0.75c-0.42,0-0.75,0.34-0.75,0.75
	c0,0.42,0.34,0.75,0.75,0.75C6.99,61.44,7.33,61.1,7.33,60.68z M7.33,65.18c0-0.42-0.34-0.75-0.75-0.75c-0.42,0-0.75,0.34-0.75,0.75
	c0,0.41,0.34,0.75,0.75,0.75C6.99,65.93,7.33,65.59,7.33,65.18z M7.33,69.67c0-0.42-0.34-0.75-0.75-0.75
	c-0.42,0-0.75,0.34-0.75,0.75s0.34,0.75,0.75,0.75C6.99,70.42,7.33,70.09,7.33,69.67z M7.33,74.17c0-0.42-0.34-0.75-0.75-0.75
	c-0.42,0-0.75,0.34-0.75,0.75s0.34,0.75,0.75,0.75C6.99,74.92,7.33,74.58,7.33,74.17z M2.83,56.19c0-0.42-0.34-0.75-0.75-0.75
	c-0.42,0-0.75,0.34-0.75,0.75c0,0.42,0.34,0.75,0.75,0.75C2.5,56.94,2.83,56.6,2.83,56.19z M2.83,60.68c0-0.41-0.34-0.75-0.75-0.75
	c-0.42,0-0.75,0.34-0.75,0.75c0,0.42,0.34,0.75,0.75,0.75C2.5,61.44,2.83,61.1,2.83,60.68z M2.83,65.18c0-0.42-0.34-0.75-0.75-0.75
	c-0.42,0-0.75,0.34-0.75,0.75c0,0.41,0.34,0.75,0.75,0.75C2.5,65.93,2.83,65.59,2.83,65.18z M2.83,69.67c0-0.42-0.34-0.75-0.75-0.75
	c-0.42,0-0.75,0.34-0.75,0.75s0.34,0.75,0.75,0.75C2.5,70.42,2.83,70.09,2.83,69.67z M2.83,74.17c0-0.42-0.34-0.75-0.75-0.75
	c-0.42,0-0.75,0.34-0.75,0.75s0.34,0.75,0.75,0.75C2.5,74.92,2.83,74.58,2.83,74.17z"/>
<path class="st0" d="M38.03,38.97c-0.41,0-0.75-0.34-0.75-0.75c0-0.42,0.34-0.75,0.75-0.75c0.42,0,0.75,0.34,0.75,0.75
	C38.78,38.63,38.45,38.97,38.03,38.97z M38.78,42.71c0-0.41-0.34-0.75-0.75-0.75c-0.41,0-0.75,0.34-0.75,0.75
	c0,0.42,0.34,0.75,0.75,0.75C38.45,43.46,38.78,43.12,38.78,42.71z M38.78,47.2c0-0.42-0.34-0.75-0.75-0.75
	c-0.41,0-0.75,0.34-0.75,0.75c0,0.41,0.34,0.75,0.75,0.75C38.45,47.95,38.78,47.62,38.78,47.2z M38.78,51.7
	c0-0.42-0.34-0.75-0.75-0.75c-0.41,0-0.75,0.34-0.75,0.75s0.34,0.75,0.75,0.75C38.45,52.45,38.78,52.11,38.78,51.7z M38.78,56.19
	c0-0.42-0.34-0.75-0.75-0.75c-0.41,0-0.75,0.34-0.75,0.75c0,0.42,0.34,0.75,0.75,0.75C38.45,56.94,38.78,56.6,38.78,56.19z
	 M34.29,38.21c0-0.42-0.34-0.75-0.75-0.75s-0.75,0.34-0.75,0.75c0,0.42,0.34,0.75,0.75,0.75S34.29,38.63,34.29,38.21z M34.29,42.71
	c0-0.41-0.34-0.75-0.75-0.75s-0.75,0.34-0.75,0.75c0,0.42,0.34,0.75,0.75,0.75S34.29,43.12,34.29,42.71z M34.29,47.2
	c0-0.42-0.34-0.75-0.75-0.75s-0.75,0.34-0.75,0.75c0,0.41,0.34,0.75,0.75,0.75S34.29,47.62,34.29,47.2z M34.29,51.7
	c0-0.42-0.34-0.75-0.75-0.75s-0.75,0.34-0.75,0.75s0.34,0.75,0.75,0.75S34.29,52.11,34.29,51.7z M34.29,56.19
	c0-0.42-0.34-0.75-0.75-0.75s-0.75,0.34-0.75,0.75c0,0.42,0.34,0.75,0.75,0.75S34.29,56.6,34.29,56.19z M29.8,38.21
	c0-0.42-0.34-0.75-0.75-0.75c-0.42,0-0.75,0.34-0.75,0.75c0,0.42,0.34,0.75,0.75,0.75C29.46,38.97,29.8,38.63,29.8,38.21z
	 M29.8,42.71c0-0.41-0.34-0.75-0.75-0.75c-0.42,0-0.75,0.34-0.75,0.75c0,0.42,0.34,0.75,0.75,0.75
	C29.46,43.46,29.8,43.12,29.8,42.71z M29.8,47.2c0-0.42-0.34-0.75-0.75-0.75c-0.42,0-0.75,0.34-0.75,0.75
	c0,0.41,0.34,0.75,0.75,0.75C29.46,47.95,29.8,47.62,29.8,47.2z M29.8,51.7c0-0.42-0.34-0.75-0.75-0.75c-0.42,0-0.75,0.34-0.75,0.75
	s0.34,0.75,0.75,0.75C29.46,52.45,29.8,52.11,29.8,51.7z M29.8,56.19c0-0.42-0.34-0.75-0.75-0.75c-0.42,0-0.75,0.34-0.75,0.75
	c0,0.42,0.34,0.75,0.75,0.75C29.46,56.94,29.8,56.6,29.8,56.19z M25.3,38.21c0-0.42-0.34-0.75-0.75-0.75
	c-0.42,0-0.75,0.34-0.75,0.75c0,0.42,0.34,0.75,0.75,0.75C24.97,38.97,25.3,38.63,25.3,38.21z M25.3,42.71
	c0-0.41-0.34-0.75-0.75-0.75c-0.42,0-0.75,0.34-0.75,0.75c0,0.42,0.34,0.75,0.75,0.75C24.97,43.46,25.3,43.12,25.3,42.71z
	 M25.3,47.2c0-0.42-0.34-0.75-0.75-0.75c-0.42,0-0.75,0.34-0.75,0.75c0,0.41,0.34,0.75,0.75,0.75C24.97,47.95,25.3,47.62,25.3,47.2z
	 M25.3,51.7c0-0.42-0.34-0.75-0.75-0.75c-0.42,0-0.75,0.34-0.75,0.75s0.34,0.75,0.75,0.75C24.97,52.45,25.3,52.11,25.3,51.7z
	 M25.3,56.19c0-0.42-0.34-0.75-0.75-0.75c-0.42,0-0.75,0.34-0.75,0.75c0,0.42,0.34,0.75,0.75,0.75C24.97,56.94,25.3,56.6,25.3,56.19
	z M20.81,38.21c0-0.42-0.34-0.75-0.75-0.75c-0.42,0-0.75,0.34-0.75,0.75c0,0.42,0.34,0.75,0.75,0.75
	C20.47,38.97,20.81,38.63,20.81,38.21z M20.81,42.71c0-0.41-0.34-0.75-0.75-0.75c-0.42,0-0.75,0.34-0.75,0.75
	c0,0.42,0.34,0.75,0.75,0.75C20.47,43.46,20.81,43.12,20.81,42.71z M20.81,47.2c0-0.42-0.34-0.75-0.75-0.75
	c-0.42,0-0.75,0.34-0.75,0.75c0,0.41,0.34,0.75,0.75,0.75C20.47,47.95,20.81,47.62,20.81,47.2z M20.81,51.7
	c0-0.42-0.34-0.75-0.75-0.75c-0.42,0-0.75,0.34-0.75,0.75s0.34,0.75,0.75,0.75C20.47,52.45,20.81,52.11,20.81,51.7z M20.81,56.19
	c0-0.42-0.34-0.75-0.75-0.75c-0.42,0-0.75,0.34-0.75,0.75c0,0.42,0.34,0.75,0.75,0.75C20.47,56.94,20.81,56.6,20.81,56.19z"/>
<path class="st0" d="M38.03,56.94c-0.41,0-0.75-0.34-0.75-0.75c0-0.42,0.34-0.75,0.75-0.75c0.42,0,0.75,0.34,0.75,0.75
	C38.78,56.6,38.45,56.94,38.03,56.94z M38.78,60.68c0-0.41-0.34-0.75-0.75-0.75c-0.41,0-0.75,0.34-0.75,0.75
	c0,0.42,0.34,0.75,0.75,0.75C38.45,61.44,38.78,61.1,38.78,60.68z M38.78,65.18c0-0.42-0.34-0.75-0.75-0.75
	c-0.41,0-0.75,0.34-0.75,0.75c0,0.41,0.34,0.75,0.75,0.75C38.45,65.93,38.78,65.59,38.78,65.18z M38.78,69.67
	c0-0.42-0.34-0.75-0.75-0.75c-0.41,0-0.75,0.34-0.75,0.75s0.34,0.75,0.75,0.75C38.45,70.42,38.78,70.09,38.78,69.67z M38.78,74.17
	c0-0.42-0.34-0.75-0.75-0.75c-0.41,0-0.75,0.34-0.75,0.75s0.34,0.75,0.75,0.75C38.45,74.92,38.78,74.58,38.78,74.17z M34.29,56.19
	c0-0.42-0.34-0.75-0.75-0.75s-0.75,0.34-0.75,0.75c0,0.42,0.34,0.75,0.75,0.75S34.29,56.6,34.29,56.19z M34.29,60.68
	c0-0.41-0.34-0.75-0.75-0.75s-0.75,0.34-0.75,0.75c0,0.42,0.34,0.75,0.75,0.75S34.29,61.1,34.29,60.68z M34.29,65.18
	c0-0.42-0.34-0.75-0.75-0.75s-0.75,0.34-0.75,0.75c0,0.41,0.34,0.75,0.75,0.75S34.29,65.59,34.29,65.18z M34.29,69.67
	c0-0.42-0.34-0.75-0.75-0.75s-0.75,0.34-0.75,0.75s0.34,0.75,0.75,0.75S34.29,70.09,34.29,69.67z M34.29,74.17
	c0-0.42-0.34-0.75-0.75-0.75s-0.75,0.34-0.75,0.75s0.34,0.75,0.75,0.75S34.29,74.58,34.29,74.17z M29.8,56.19
	c0-0.42-0.34-0.75-0.75-0.75c-0.42,0-0.75,0.34-0.75,0.75c0,0.42,0.34,0.75,0.75,0.75C29.46,56.94,29.8,56.6,29.8,56.19z
	 M29.8,60.68c0-0.41-0.34-0.75-0.75-0.75c-0.42,0-0.75,0.34-0.75,0.75c0,0.42,0.34,0.75,0.75,0.75C29.46,61.44,29.8,61.1,29.8,60.68
	z M29.8,65.18c0-0.42-0.34-0.75-0.75-0.75c-0.42,0-0.75,0.34-0.75,0.75c0,0.41,0.34,0.75,0.75,0.75
	C29.46,65.93,29.8,65.59,29.8,65.18z M29.8,69.67c0-0.42-0.34-0.75-0.75-0.75c-0.42,0-0.75,0.34-0.75,0.75s0.34,0.75,0.75,0.75
	C29.46,70.42,29.8,70.09,29.8,69.67z M29.8,74.17c0-0.42-0.34-0.75-0.75-0.75c-0.42,0-0.75,0.34-0.75,0.75s0.34,0.75,0.75,0.75
	C29.46,74.92,29.8,74.58,29.8,74.17z M25.3,56.19c0-0.42-0.34-0.75-0.75-0.75c-0.42,0-0.75,0.34-0.75,0.75
	c0,0.42,0.34,0.75,0.75,0.75C24.97,56.94,25.3,56.6,25.3,56.19z M25.3,60.68c0-0.41-0.34-0.75-0.75-0.75
	c-0.42,0-0.75,0.34-0.75,0.75c0,0.42,0.34,0.75,0.75,0.75C24.97,61.44,25.3,61.1,25.3,60.68z M25.3,65.18
	c0-0.42-0.34-0.75-0.75-0.75c-0.42,0-0.75,0.34-0.75,0.75c0,0.41,0.34,0.75,0.75,0.75C24.97,65.93,25.3,65.59,25.3,65.18z
	 M25.3,69.67c0-0.42-0.34-0.75-0.75-0.75c-0.42,0-0.75,0.34-0.75,0.75s0.34,0.75,0.75,0.75C24.97,70.42,25.3,70.09,25.3,69.67z
	 M25.3,74.17c0-0.42-0.34-0.75-0.75-0.75c-0.42,0-0.75,0.34-0.75,0.75s0.34,0.75,0.75,0.75C24.97,74.92,25.3,74.58,25.3,74.17z
	 M20.81,56.19c0-0.42-0.34-0.75-0.75-0.75c-0.42,0-0.75,0.34-0.75,0.75c0,0.42,0.34,0.75,0.75,0.75
	C20.47,56.94,20.81,56.6,20.81,56.19z M20.81,60.68c0-0.41-0.34-0.75-0.75-0.75c-0.42,0-0.75,0.34-0.75,0.75
	c0,0.42,0.34,0.75,0.75,0.75C20.47,61.44,20.81,61.1,20.81,60.68z M20.81,65.18c0-0.42-0.34-0.75-0.75-0.75
	c-0.42,0-0.75,0.34-0.75,0.75c0,0.41,0.34,0.75,0.75,0.75C20.47,65.93,20.81,65.59,20.81,65.18z M20.81,69.67
	c0-0.42-0.34-0.75-0.75-0.75c-0.42,0-0.75,0.34-0.75,0.75s0.34,0.75,0.75,0.75C20.47,70.42,20.81,70.09,20.81,69.67z M20.81,74.17
	c0-0.42-0.34-0.75-0.75-0.75c-0.42,0-0.75,0.34-0.75,0.75s0.34,0.75,0.75,0.75C20.47,74.92,20.81,74.58,20.81,74.17z"/>
<path class="st0" d="M56.01,38.97c-0.41,0-0.75-0.34-0.75-0.75c0-0.42,0.34-0.75,0.75-0.75c0.42,0,0.75,0.34,0.75,0.75
	C56.76,38.63,56.42,38.97,56.01,38.97z M56.76,42.71c0-0.41-0.34-0.75-0.75-0.75c-0.41,0-0.75,0.34-0.75,0.75
	c0,0.42,0.34,0.75,0.75,0.75C56.42,43.46,56.76,43.12,56.76,42.71z M56.76,47.2c0-0.42-0.34-0.75-0.75-0.75
	c-0.41,0-0.75,0.34-0.75,0.75c0,0.41,0.34,0.75,0.75,0.75C56.42,47.95,56.76,47.62,56.76,47.2z M56.76,51.7
	c0-0.42-0.34-0.75-0.75-0.75c-0.41,0-0.75,0.34-0.75,0.75s0.34,0.75,0.75,0.75C56.42,52.45,56.76,52.11,56.76,51.7z M56.76,56.19
	c0-0.42-0.34-0.75-0.75-0.75c-0.41,0-0.75,0.34-0.75,0.75c0,0.42,0.34,0.75,0.75,0.75C56.42,56.94,56.76,56.6,56.76,56.19z
	 M52.27,38.21c0-0.42-0.34-0.75-0.75-0.75s-0.75,0.34-0.75,0.75c0,0.42,0.34,0.75,0.75,0.75S52.27,38.63,52.27,38.21z M52.27,42.71
	c0-0.41-0.34-0.75-0.75-0.75s-0.75,0.34-0.75,0.75c0,0.42,0.34,0.75,0.75,0.75S52.27,43.12,52.27,42.71z M52.27,47.2
	c0-0.42-0.34-0.75-0.75-0.75s-0.75,0.34-0.75,0.75c0,0.41,0.34,0.75,0.75,0.75S52.27,47.62,52.27,47.2z M52.27,51.7
	c0-0.42-0.34-0.75-0.75-0.75s-0.75,0.34-0.75,0.75s0.34,0.75,0.75,0.75S52.27,52.11,52.27,51.7z M52.27,56.19
	c0-0.42-0.34-0.75-0.75-0.75s-0.75,0.34-0.75,0.75c0,0.42,0.34,0.75,0.75,0.75S52.27,56.6,52.27,56.19z M47.77,38.21
	c0-0.42-0.34-0.75-0.75-0.75c-0.42,0-0.75,0.34-0.75,0.75c0,0.42,0.34,0.75,0.75,0.75C47.44,38.97,47.77,38.63,47.77,38.21z
	 M47.77,42.71c0-0.41-0.34-0.75-0.75-0.75c-0.42,0-0.75,0.34-0.75,0.75c0,0.42,0.34,0.75,0.75,0.75
	C47.44,43.46,47.77,43.12,47.77,42.71z M47.77,47.2c0-0.42-0.34-0.75-0.75-0.75c-0.42,0-0.75,0.34-0.75,0.75
	c0,0.41,0.34,0.75,0.75,0.75C47.44,47.95,47.77,47.62,47.77,47.2z M47.77,51.7c0-0.42-0.34-0.75-0.75-0.75
	c-0.42,0-0.75,0.34-0.75,0.75s0.34,0.75,0.75,0.75C47.44,52.45,47.77,52.11,47.77,51.7z M47.77,56.19c0-0.42-0.34-0.75-0.75-0.75
	c-0.42,0-0.75,0.34-0.75,0.75c0,0.42,0.34,0.75,0.75,0.75C47.44,56.94,47.77,56.6,47.77,56.19z M43.28,38.21
	c0-0.42-0.34-0.75-0.75-0.75c-0.42,0-0.75,0.34-0.75,0.75c0,0.42,0.34,0.75,0.75,0.75C42.94,38.97,43.28,38.63,43.28,38.21z
	 M43.28,42.71c0-0.41-0.34-0.75-0.75-0.75c-0.42,0-0.75,0.34-0.75,0.75c0,0.42,0.34,0.75,0.75,0.75
	C42.94,43.46,43.28,43.12,43.28,42.71z M43.28,47.2c0-0.42-0.34-0.75-0.75-0.75c-0.42,0-0.75,0.34-0.75,0.75
	c0,0.41,0.34,0.75,0.75,0.75C42.94,47.95,43.28,47.62,43.28,47.2z M43.28,51.7c0-0.42-0.34-0.75-0.75-0.75
	c-0.42,0-0.75,0.34-0.75,0.75s0.34,0.75,0.75,0.75C42.94,52.45,43.28,52.11,43.28,51.7z M43.28,56.19c0-0.42-0.34-0.75-0.75-0.75
	c-0.42,0-0.75,0.34-0.75,0.75c0,0.42,0.34,0.75,0.75,0.75C42.94,56.94,43.28,56.6,43.28,56.19z M38.78,38.21
	c0-0.42-0.34-0.75-0.75-0.75c-0.42,0-0.75,0.34-0.75,0.75c0,0.42,0.34,0.75,0.75,0.75C38.45,38.97,38.78,38.63,38.78,38.21z
	 M38.78,42.71c0-0.41-0.34-0.75-0.75-0.75c-0.42,0-0.75,0.34-0.75,0.75c0,0.42,0.34,0.75,0.75,0.75
	C38.45,43.46,38.78,43.12,38.78,42.71z M38.78,47.2c0-0.42-0.34-0.75-0.75-0.75c-0.42,0-0.75,0.34-0.75,0.75
	c0,0.41,0.34,0.75,0.75,0.75C38.45,47.95,38.78,47.62,38.78,47.2z M38.78,51.7c0-0.42-0.34-0.75-0.75-0.75
	c-0.42,0-0.75,0.34-0.75,0.75s0.34,0.75,0.75,0.75C38.45,52.45,38.78,52.11,38.78,51.7z M38.78,56.19c0-0.42-0.34-0.75-0.75-0.75
	c-0.42,0-0.75,0.34-0.75,0.75c0,0.42,0.34,0.75,0.75,0.75C38.45,56.94,38.78,56.6,38.78,56.19z"/>
<path class="st0" d="M56.01,56.94c-0.41,0-0.75-0.34-0.75-0.75c0-0.42,0.34-0.75,0.75-0.75c0.42,0,0.75,0.34,0.75,0.75
	C56.76,56.6,56.42,56.94,56.01,56.94z M56.76,60.68c0-0.41-0.34-0.75-0.75-0.75c-0.41,0-0.75,0.34-0.75,0.75
	c0,0.42,0.34,0.75,0.75,0.75C56.42,61.44,56.76,61.1,56.76,60.68z M56.76,65.18c0-0.42-0.34-0.75-0.75-0.75
	c-0.41,0-0.75,0.34-0.75,0.75c0,0.41,0.34,0.75,0.75,0.75C56.42,65.93,56.76,65.59,56.76,65.18z M56.76,69.67
	c0-0.42-0.34-0.75-0.75-0.75c-0.41,0-0.75,0.34-0.75,0.75s0.34,0.75,0.75,0.75C56.42,70.42,56.76,70.09,56.76,69.67z M56.76,74.17
	c0-0.42-0.34-0.75-0.75-0.75c-0.41,0-0.75,0.34-0.75,0.75s0.34,0.75,0.75,0.75C56.42,74.92,56.76,74.58,56.76,74.17z M52.27,56.19
	c0-0.42-0.34-0.75-0.75-0.75s-0.75,0.34-0.75,0.75c0,0.42,0.34,0.75,0.75,0.75S52.27,56.6,52.27,56.19z M52.27,60.68
	c0-0.41-0.34-0.75-0.75-0.75s-0.75,0.34-0.75,0.75c0,0.42,0.34,0.75,0.75,0.75S52.27,61.1,52.27,60.68z M52.27,65.18
	c0-0.42-0.34-0.75-0.75-0.75s-0.75,0.34-0.75,0.75c0,0.41,0.34,0.75,0.75,0.75S52.27,65.59,52.27,65.18z M52.27,69.67
	c0-0.42-0.34-0.75-0.75-0.75s-0.75,0.34-0.75,0.75s0.34,0.75,0.75,0.75S52.27,70.09,52.27,69.67z M52.27,74.17
	c0-0.42-0.34-0.75-0.75-0.75s-0.75,0.34-0.75,0.75s0.34,0.75,0.75,0.75S52.27,74.58,52.27,74.17z M47.77,56.19
	c0-0.42-0.34-0.75-0.75-0.75c-0.42,0-0.75,0.34-0.75,0.75c0,0.42,0.34,0.75,0.75,0.75C47.44,56.94,47.77,56.6,47.77,56.19z
	 M47.77,60.68c0-0.41-0.34-0.75-0.75-0.75c-0.42,0-0.75,0.34-0.75,0.75c0,0.42,0.34,0.75,0.75,0.75
	C47.44,61.44,47.77,61.1,47.77,60.68z M47.77,65.18c0-0.42-0.34-0.75-0.75-0.75c-0.42,0-0.75,0.34-0.75,0.75
	c0,0.41,0.34,0.75,0.75,0.75C47.44,65.93,47.77,65.59,47.77,65.18z M47.77,69.67c0-0.42-0.34-0.75-0.75-0.75
	c-0.42,0-0.75,0.34-0.75,0.75s0.34,0.75,0.75,0.75C47.44,70.42,47.77,70.09,47.77,69.67z M47.77,74.17c0-0.42-0.34-0.75-0.75-0.75
	c-0.42,0-0.75,0.34-0.75,0.75s0.34,0.75,0.75,0.75C47.44,74.92,47.77,74.58,47.77,74.17z M43.28,56.19c0-0.42-0.34-0.75-0.75-0.75
	c-0.42,0-0.75,0.34-0.75,0.75c0,0.42,0.34,0.75,0.75,0.75C42.94,56.94,43.28,56.6,43.28,56.19z M43.28,60.68
	c0-0.41-0.34-0.75-0.75-0.75c-0.42,0-0.75,0.34-0.75,0.75c0,0.42,0.34,0.75,0.75,0.75C42.94,61.44,43.28,61.1,43.28,60.68z
	 M43.28,65.18c0-0.42-0.34-0.75-0.75-0.75c-0.42,0-0.75,0.34-0.75,0.75c0,0.41,0.34,0.75,0.75,0.75
	C42.94,65.93,43.28,65.59,43.28,65.18z M43.28,69.67c0-0.42-0.34-0.75-0.75-0.75c-0.42,0-0.75,0.34-0.75,0.75s0.34,0.75,0.75,0.75
	C42.94,70.42,43.28,70.09,43.28,69.67z M43.28,74.17c0-0.42-0.34-0.75-0.75-0.75c-0.42,0-0.75,0.34-0.75,0.75s0.34,0.75,0.75,0.75
	C42.94,74.92,43.28,74.58,43.28,74.17z M38.78,56.19c0-0.42-0.34-0.75-0.75-0.75c-0.42,0-0.75,0.34-0.75,0.75
	c0,0.42,0.34,0.75,0.75,0.75C38.45,56.94,38.78,56.6,38.78,56.19z M38.78,60.68c0-0.41-0.34-0.75-0.75-0.75
	c-0.42,0-0.75,0.34-0.75,0.75c0,0.42,0.34,0.75,0.75,0.75C38.45,61.44,38.78,61.1,38.78,60.68z M38.78,65.18
	c0-0.42-0.34-0.75-0.75-0.75c-0.42,0-0.75,0.34-0.75,0.75c0,0.41,0.34,0.75,0.75,0.75C38.45,65.93,38.78,65.59,38.78,65.18z
	 M38.78,69.67c0-0.42-0.34-0.75-0.75-0.75c-0.42,0-0.75,0.34-0.75,0.75s0.34,0.75,0.75,0.75C38.45,70.42,38.78,70.09,38.78,69.67z
	 M38.78,74.17c0-0.42-0.34-0.75-0.75-0.75c-0.42,0-0.75,0.34-0.75,0.75s0.34,0.75,0.75,0.75C38.45,74.92,38.78,74.58,38.78,74.17z"
	/>
<path class="st0" d="M73.98,38.97c-0.41,0-0.75-0.34-0.75-0.75c0-0.42,0.34-0.75,0.75-0.75c0.42,0,0.75,0.34,0.75,0.75
	C74.74,38.63,74.4,38.97,73.98,38.97z M74.74,42.71c0-0.41-0.34-0.75-0.75-0.75c-0.41,0-0.75,0.34-0.75,0.75
	c0,0.42,0.34,0.75,0.75,0.75C74.4,43.46,74.74,43.12,74.74,42.71z M74.74,47.2c0-0.42-0.34-0.75-0.75-0.75
	c-0.41,0-0.75,0.34-0.75,0.75c0,0.41,0.34,0.75,0.75,0.75C74.4,47.95,74.74,47.62,74.74,47.2z M74.74,51.7
	c0-0.42-0.34-0.75-0.75-0.75c-0.41,0-0.75,0.34-0.75,0.75s0.34,0.75,0.75,0.75C74.4,52.45,74.74,52.11,74.74,51.7z M74.74,56.19
	c0-0.42-0.34-0.75-0.75-0.75c-0.41,0-0.75,0.34-0.75,0.75c0,0.42,0.34,0.75,0.75,0.75C74.4,56.94,74.74,56.6,74.74,56.19z
	 M70.24,38.21c0-0.42-0.34-0.75-0.75-0.75c-0.42,0-0.75,0.34-0.75,0.75c0,0.42,0.34,0.75,0.75,0.75
	C69.9,38.97,70.24,38.63,70.24,38.21z M70.24,42.71c0-0.41-0.34-0.75-0.75-0.75c-0.42,0-0.75,0.34-0.75,0.75
	c0,0.42,0.34,0.75,0.75,0.75C69.9,43.46,70.24,43.12,70.24,42.71z M70.24,47.2c0-0.42-0.34-0.75-0.75-0.75
	c-0.42,0-0.75,0.34-0.75,0.75c0,0.41,0.34,0.75,0.75,0.75C69.9,47.95,70.24,47.62,70.24,47.2z M70.24,51.7
	c0-0.42-0.34-0.75-0.75-0.75c-0.42,0-0.75,0.34-0.75,0.75s0.34,0.75,0.75,0.75C69.9,52.45,70.24,52.11,70.24,51.7z M70.24,56.19
	c0-0.42-0.34-0.75-0.75-0.75c-0.42,0-0.75,0.34-0.75,0.75c0,0.42,0.34,0.75,0.75,0.75C69.9,56.94,70.24,56.6,70.24,56.19z
	 M65.75,38.21c0-0.42-0.34-0.75-0.75-0.75c-0.42,0-0.75,0.34-0.75,0.75c0,0.42,0.34,0.75,0.75,0.75
	C65.41,38.97,65.75,38.63,65.75,38.21z M65.75,42.71c0-0.41-0.34-0.75-0.75-0.75c-0.42,0-0.75,0.34-0.75,0.75
	c0,0.42,0.34,0.75,0.75,0.75C65.41,43.46,65.75,43.12,65.75,42.71z M65.75,47.2c0-0.42-0.34-0.75-0.75-0.75
	c-0.42,0-0.75,0.34-0.75,0.75c0,0.41,0.34,0.75,0.75,0.75C65.41,47.95,65.75,47.62,65.75,47.2z M65.75,51.7
	c0-0.42-0.34-0.75-0.75-0.75c-0.42,0-0.75,0.34-0.75,0.75s0.34,0.75,0.75,0.75C65.41,52.45,65.75,52.11,65.75,51.7z M65.75,56.19
	c0-0.42-0.34-0.75-0.75-0.75c-0.42,0-0.75,0.34-0.75,0.75c0,0.42,0.34,0.75,0.75,0.75C65.41,56.94,65.75,56.6,65.75,56.19z
	 M61.25,38.21c0-0.42-0.34-0.75-0.75-0.75c-0.42,0-0.75,0.34-0.75,0.75c0,0.42,0.34,0.75,0.75,0.75
	C60.92,38.97,61.25,38.63,61.25,38.21z M61.25,42.71c0-0.41-0.34-0.75-0.75-0.75c-0.42,0-0.75,0.34-0.75,0.75
	c0,0.42,0.34,0.75,0.75,0.75C60.92,43.46,61.25,43.12,61.25,42.71z M61.25,47.2c0-0.42-0.34-0.75-0.75-0.75
	c-0.42,0-0.75,0.34-0.75,0.75c0,0.41,0.34,0.75,0.75,0.75C60.92,47.95,61.25,47.62,61.25,47.2z M61.25,51.7
	c0-0.42-0.34-0.75-0.75-0.75c-0.42,0-0.75,0.34-0.75,0.75s0.34,0.75,0.75,0.75C60.92,52.45,61.25,52.11,61.25,51.7z M61.25,56.19
	c0-0.42-0.34-0.75-0.75-0.75c-0.42,0-0.75,0.34-0.75,0.75c0,0.42,0.34,0.75,0.75,0.75C60.92,56.94,61.25,56.6,61.25,56.19z
	 M56.76,38.21c0-0.42-0.34-0.75-0.75-0.75c-0.42,0-0.75,0.34-0.75,0.75c0,0.42,0.34,0.75,0.75,0.75
	C56.42,38.97,56.76,38.63,56.76,38.21z M56.76,42.71c0-0.41-0.34-0.75-0.75-0.75c-0.42,0-0.75,0.34-0.75,0.75
	c0,0.42,0.34,0.75,0.75,0.75C56.42,43.46,56.76,43.12,56.76,42.71z M56.76,47.2c0-0.42-0.34-0.75-0.75-0.75
	c-0.42,0-0.75,0.34-0.75,0.75c0,0.41,0.34,0.75,0.75,0.75C56.42,47.95,56.76,47.62,56.76,47.2z M56.76,51.7
	c0-0.42-0.34-0.75-0.75-0.75c-0.42,0-0.75,0.34-0.75,0.75s0.34,0.75,0.75,0.75C56.42,52.45,56.76,52.11,56.76,51.7z M56.76,56.19
	c0-0.42-0.34-0.75-0.75-0.75c-0.42,0-0.75,0.34-0.75,0.75c0,0.42,0.34,0.75,0.75,0.75C56.42,56.94,56.76,56.6,56.76,56.19z"/>
<path class="st0" d="M73.98,56.94c-0.41,0-0.75-0.34-0.75-0.75c0-0.42,0.34-0.75,0.75-0.75c0.42,0,0.75,0.34,0.75,0.75
	C74.74,56.6,74.4,56.94,73.98,56.94z M74.74,60.68c0-0.41-0.34-0.75-0.75-0.75c-0.41,0-0.75,0.34-0.75,0.75
	c0,0.42,0.34,0.75,0.75,0.75C74.4,61.44,74.74,61.1,74.74,60.68z M74.74,65.18c0-0.42-0.34-0.75-0.75-0.75
	c-0.41,0-0.75,0.34-0.75,0.75c0,0.41,0.34,0.75,0.75,0.75C74.4,65.93,74.74,65.59,74.74,65.18z M74.74,69.67
	c0-0.42-0.34-0.75-0.75-0.75c-0.41,0-0.75,0.34-0.75,0.75s0.34,0.75,0.75,0.75C74.4,70.42,74.74,70.09,74.74,69.67z M74.74,74.17
	c0-0.42-0.34-0.75-0.75-0.75c-0.41,0-0.75,0.34-0.75,0.75s0.34,0.75,0.75,0.75C74.4,74.92,74.74,74.58,74.74,74.17z M70.24,56.19
	c0-0.42-0.34-0.75-0.75-0.75c-0.42,0-0.75,0.34-0.75,0.75c0,0.42,0.34,0.75,0.75,0.75C69.9,56.94,70.24,56.6,70.24,56.19z
	 M70.24,60.68c0-0.41-0.34-0.75-0.75-0.75c-0.42,0-0.75,0.34-0.75,0.75c0,0.42,0.34,0.75,0.75,0.75
	C69.9,61.44,70.24,61.1,70.24,60.68z M70.24,65.18c0-0.42-0.34-0.75-0.75-0.75c-0.42,0-0.75,0.34-0.75,0.75
	c0,0.41,0.34,0.75,0.75,0.75C69.9,65.93,70.24,65.59,70.24,65.18z M70.24,69.67c0-0.42-0.34-0.75-0.75-0.75
	c-0.42,0-0.75,0.34-0.75,0.75s0.34,0.75,0.75,0.75C69.9,70.42,70.24,70.09,70.24,69.67z M70.24,74.17c0-0.42-0.34-0.75-0.75-0.75
	c-0.42,0-0.75,0.34-0.75,0.75s0.34,0.75,0.75,0.75C69.9,74.92,70.24,74.58,70.24,74.17z M65.75,56.19c0-0.42-0.34-0.75-0.75-0.75
	c-0.42,0-0.75,0.34-0.75,0.75c0,0.42,0.34,0.75,0.75,0.75C65.41,56.94,65.75,56.6,65.75,56.19z M65.75,60.68
	c0-0.41-0.34-0.75-0.75-0.75c-0.42,0-0.75,0.34-0.75,0.75c0,0.42,0.34,0.75,0.75,0.75C65.41,61.44,65.75,61.1,65.75,60.68z
	 M65.75,65.18c0-0.42-0.34-0.75-0.75-0.75c-0.42,0-0.75,0.34-0.75,0.75c0,0.41,0.34,0.75,0.75,0.75
	C65.41,65.93,65.75,65.59,65.75,65.18z M65.75,69.67c0-0.42-0.34-0.75-0.75-0.75c-0.42,0-0.75,0.34-0.75,0.75s0.34,0.75,0.75,0.75
	C65.41,70.42,65.75,70.09,65.75,69.67z M65.75,74.17c0-0.42-0.34-0.75-0.75-0.75c-0.42,0-0.75,0.34-0.75,0.75s0.34,0.75,0.75,0.75
	C65.41,74.92,65.75,74.58,65.75,74.17z M61.25,56.19c0-0.42-0.34-0.75-0.75-0.75c-0.42,0-0.75,0.34-0.75,0.75
	c0,0.42,0.34,0.75,0.75,0.75C60.92,56.94,61.25,56.6,61.25,56.19z M61.25,60.68c0-0.41-0.34-0.75-0.75-0.75
	c-0.42,0-0.75,0.34-0.75,0.75c0,0.42,0.34,0.75,0.75,0.75C60.92,61.44,61.25,61.1,61.25,60.68z M61.25,65.18
	c0-0.42-0.34-0.75-0.75-0.75c-0.42,0-0.75,0.34-0.75,0.75c0,0.41,0.34,0.75,0.75,0.75C60.92,65.93,61.25,65.59,61.25,65.18z
	 M61.25,69.67c0-0.42-0.34-0.75-0.75-0.75c-0.42,0-0.75,0.34-0.75,0.75s0.34,0.75,0.75,0.75C60.92,70.42,61.25,70.09,61.25,69.67z
	 M61.25,74.17c0-0.42-0.34-0.75-0.75-0.75c-0.42,0-0.75,0.34-0.75,0.75s0.34,0.75,0.75,0.75C60.92,74.92,61.25,74.58,61.25,74.17z
	 M56.76,56.19c0-0.42-0.34-0.75-0.75-0.75c-0.42,0-0.75,0.34-0.75,0.75c0,0.42,0.34,0.75,0.75,0.75
	C56.42,56.94,56.76,56.6,56.76,56.19z M56.76,60.68c0-0.41-0.34-0.75-0.75-0.75c-0.42,0-0.75,0.34-0.75,0.75
	c0,0.42,0.34,0.75,0.75,0.75C56.42,61.44,56.76,61.1,56.76,60.68z M56.76,65.18c0-0.42-0.34-0.75-0.75-0.75
	c-0.42,0-0.75,0.34-0.75,0.75c0,0.41,0.34,0.75,0.75,0.75C56.42,65.93,56.76,65.59,56.76,65.18z M56.76,69.67
	c0-0.42-0.34-0.75-0.75-0.75c-0.42,0-0.75,0.34-0.75,0.75s0.34,0.75,0.75,0.75C56.42,70.42,56.76,70.09,56.76,69.67z M56.76,74.17
	c0-0.42-0.34-0.75-0.75-0.75c-0.42,0-0.75,0.34-0.75,0.75s0.34,0.75,0.75,0.75C56.42,74.92,56.76,74.58,56.76,74.17z"/>
</svg>
