<?xml version="1.0" encoding="utf-8"?>
<!-- Generator: Adobe Illustrator 25.0.0, SVG Export Plug-In . SVG Version: 6.00 Build 0)  -->
<svg version="1.1" id="Layer_5" xmlns="http://www.w3.org/2000/svg" xmlns:xlink="http://www.w3.org/1999/xlink" x="0px" y="0px"
	 viewBox="0 0 551.93 553" style="enable-background:new 0 0 551.93 553;" xml:space="preserve">
<path d="M192.03,51.07c-24.74,6.7-44.34,29.36-47.4,54.81c-3.46,28.73,12.27,58.77,2.51,86.02c-12.85,35.85-58.99,43.54-90.88,64.37
	c-31.63,20.66-50.93,58.87-48.8,96.59c2.13,37.72,25.62,73.51,59.37,90.47c54.26,27.27,122.14,5.55,178.72,27.61
	c37.59,14.66,65.8,47.01,102.5,63.76c52.56,23.98,119.91,10.07,158.67-32.77c38.76-42.84,45.86-111.25,16.75-161.15
	c-19.53-33.47-53.31-59.01-63.93-96.28c-11.07-38.86,5.92-79.36,15.5-118.62s7.65-88.84-26.86-109.86
	c-32.1-19.55-73.21-3.22-106.98,13.26c-20.34,9.93-58.58,38.93-81.4,38.15C235.19,66.6,221.64,42.84,192.03,51.07z"/>
</svg>
